{"glyphs":{"0":{"ha":757,"x_min":44,"x_max":668,"o":"m 378 665 q 508 638 447 665 q 614 565 568 611 q 686 458 660 519 q 713 325 713 396 q 686 192 713 254 q 614 85 660 131 q 508 12 568 39 q 378 -15 447 -15 q 248 12 308 -15 q 142 85 188 39 q 71 192 97 131 q 44 325 44 254 q 71 458 44 396 q 142 565 97 519 q 248 638 188 611 q 378 665 308 665 m 378 551 q 291 533 332 551 q 219 485 250 515 q 172 413 189 454 q 154 325 154 372 q 172 237 154 278 q 219 165 189 196 q 291 117 250 135 q 378 99 332 99 q 465 117 424 99 q 536 165 506 135 q 585 237 567 196 q 603 325 603 278 q 585 413 603 372 q 536 485 567 454 q 465 533 506 515 q 378 551 424 551 z "},"1":{"ha":328,"x_min":44,"x_max":239,"o":"m 115 354 l 115 401 q 113 457 115 433 q 101 490 111 481 q 72 510 90 503 q 53 547 54 518 q 64 576 53 563 q 90 590 75 590 q 118 601 101 590 q 153 626 135 613 q 192 651 172 640 q 231 663 213 663 q 263 651 257 663 q 269 615 269 639 l 269 165 q 272 133 269 144 q 276 110 274 121 q 281 88 279 100 q 283 56 283 75 q 275 10 283 28 q 240 -14 267 -8 l 81 -14 q 54 -10 64 -14 q 44 10 44 -7 l 44 33 q 56 80 44 65 q 80 120 67 94 q 104 197 93 146 q 115 354 115 247 z "},"2":{"ha":644,"x_min":44,"x_max":556,"o":"m 283 519 q 235 503 253 519 q 204 470 218 488 q 175 441 190 453 q 135 438 160 429 q 72 460 100 447 q 44 496 44 474 q 73 553 56 525 q 117 605 90 582 q 180 642 143 628 q 267 656 217 656 q 436 606 372 656 q 500 450 500 557 q 488 370 500 404 q 458 307 476 336 q 418 252 439 278 q 378 199 397 226 q 361 169 361 178 q 381 160 361 161 q 447 156 413 157 q 510 150 481 154 q 564 135 540 146 q 600 103 588 124 q 586 63 597 85 q 560 24 575 42 q 528 -2 544 7 q 499 -6 511 -11 q 400 19 456 14 q 293 25 344 25 q 178 20 240 25 q 68 0 117 15 q 63 26 63 10 q 68 61 63 44 q 172 136 117 97 q 276 219 228 175 q 357 313 325 263 q 389 422 389 363 q 361 495 389 471 q 283 519 333 519 z "},"3":{"ha":661,"x_min":44,"x_max":572,"o":"m 453 -100 q 437 -14 453 -54 q 390 56 421 26 q 314 99 360 85 q 208 108 268 114 q 197 121 197 108 q 201 135 197 128 q 208 147 204 142 q 269 212 232 178 q 342 283 307 246 q 403 359 378 319 q 428 442 428 399 q 404 508 428 490 q 332 526 381 526 q 283 508 301 526 q 249 469 264 490 q 217 434 233 449 q 175 428 200 419 q 105 453 140 439 q 69 490 69 468 q 98 550 81 519 q 146 606 115 581 q 223 648 176 632 q 339 664 269 664 q 497 614 443 664 q 551 457 551 564 q 540 394 551 422 q 510 341 528 365 q 470 296 492 317 q 428 257 449 275 q 408 239 417 246 q 400 226 400 232 q 436 210 400 219 q 564 122 517 188 q 617 -46 611 57 q 483 -322 594 -221 q 192 -422 372 -422 q 99 -411 139 -422 q 44 -361 58 -400 q 59 -322 44 -331 q 103 -314 74 -314 q 158 -319 131 -314 q 208 -324 186 -324 q 388 -263 322 -324 q 453 -100 453 -203 z "},"4":{"ha":907,"x_min":44,"x_max":818,"o":"m 369 32 q 223 28 304 32 q 72 10 142 25 q 44 39 44 10 q 49 63 44 57 q 56 71 53 68 q 325 344 194 203 q 588 625 456 485 q 604 649 597 636 q 650 663 611 663 q 680 661 671 663 q 686 644 689 660 q 665 413 678 526 q 651 169 651 300 q 658 156 651 156 q 679 156 664 156 q 728 163 704 156 q 771 181 751 171 q 807 198 790 190 q 836 206 824 206 q 859 194 857 206 q 861 169 861 183 q 847 132 861 156 q 817 84 833 108 q 788 39 801 60 q 774 10 774 18 q 771 -1 774 6 q 749 -6 768 -7 q 709 1 732 -7 q 663 10 686 8 q 651 0 651 10 q 661 -85 647 -51 q 686 -157 675 -119 q 670 -178 689 -172 q 625 -201 651 -183 q 578 -241 600 -218 q 537 -285 556 -264 q 501 -322 518 -307 q 469 -337 485 -337 q 460 -299 458 -337 q 469 -209 463 -260 q 484 -109 476 -158 q 492 -39 492 -60 q 493 -14 492 -25 q 494 4 494 -3 q 472 28 494 24 q 369 32 450 32 m 503 182 l 503 365 q 490 379 503 379 l 485 379 q 451 353 481 379 q 390 294 422 326 q 331 231 357 261 q 304 194 304 201 l 304 182 q 309 172 304 175 q 342 169 314 169 l 490 169 q 499 171 496 169 q 503 182 503 172 z "},"5":{"ha":769,"x_min":44,"x_max":681,"o":"m 82 268 q 214 434 153 346 q 331 615 275 522 q 385 642 346 642 l 581 642 q 615 645 601 642 q 641 653 629 649 q 663 662 653 658 q 689 665 674 665 q 725 636 725 665 q 716 590 725 610 q 694 553 707 571 q 670 519 682 536 q 651 479 658 501 q 642 469 650 472 q 628 467 633 467 l 614 467 q 600 469 604 467 q 592 473 596 471 q 584 477 589 475 q 568 479 579 479 l 397 479 q 334 441 353 471 q 293 382 315 411 q 289 369 289 375 q 297 360 289 365 q 318 344 304 356 q 413 283 364 313 q 501 215 461 253 q 565 124 540 176 q 590 -6 590 72 q 563 -174 590 -96 q 481 -310 535 -253 q 350 -401 428 -368 q 174 -435 272 -435 q 126 -435 150 -435 q 85 -430 103 -435 q 56 -413 67 -425 q 44 -379 44 -401 q 58 -340 44 -356 q 96 -324 71 -324 q 117 -326 110 -324 q 131 -331 125 -328 q 145 -335 138 -333 q 168 -336 153 -336 q 356 -267 283 -332 q 429 -85 429 -203 q 409 32 429 -17 q 353 115 389 81 q 271 170 318 149 q 169 207 224 192 l 92 207 q 74 216 81 207 q 68 236 68 225 q 82 268 68 253 z "},"6":{"ha":808,"x_min":44,"x_max":719,"o":"m 463 619 q 653 546 581 619 q 726 333 726 472 q 701 188 726 251 q 633 79 676 124 q 531 12 589 35 q 406 -11 472 -11 q 260 17 326 -11 q 146 99 194 46 q 71 227 97 151 q 44 397 44 303 q 95 622 44 511 q 234 826 146 733 q 442 982 322 918 q 701 1064 563 1046 q 724 1065 710 1065 q 753 1058 742 1065 q 764 1033 764 1051 q 749 1001 764 1006 q 715 990 733 997 q 538 929 621 969 q 390 831 454 889 q 284 699 325 774 q 233 532 243 624 q 330 593 279 567 q 463 619 381 619 m 383 510 q 338 503 357 510 q 305 490 319 497 q 278 477 290 483 q 256 471 267 471 q 234 483 238 471 q 221 494 231 496 q 206 460 206 492 q 207 442 206 447 q 235 317 217 375 q 284 213 253 258 q 363 138 315 167 q 478 100 410 108 q 567 137 543 94 q 592 239 592 179 q 574 347 592 297 q 526 432 556 396 q 460 489 497 468 q 383 510 422 510 z "},"7":{"ha":769,"x_min":44,"x_max":681,"o":"m 503 633 q 561 635 539 633 q 601 641 583 638 q 635 647 619 644 q 674 649 651 649 q 710 634 697 649 q 725 599 722 619 q 501 124 606 369 q 293 -367 396 -121 q 237 -409 282 -394 q 146 -424 192 -424 q 75 -412 106 -424 q 44 -378 44 -401 q 52 -361 44 -368 q 71 -343 60 -354 q 208 -180 147 -268 q 321 5 268 -92 q 424 207 374 101 q 529 424 474 313 q 536 438 532 431 q 540 456 540 444 q 520 479 540 475 q 472 483 500 483 q 435 483 454 483 q 397 485 415 483 q 326 481 364 481 q 252 476 288 481 q 188 457 217 471 q 144 413 158 443 q 119 403 135 403 q 90 414 104 403 q 76 442 76 425 q 82 461 76 451 q 138 543 106 506 q 182 633 171 581 q 192 660 185 647 q 218 672 200 672 q 283 655 257 663 q 338 642 310 647 q 404 635 367 638 q 503 633 442 633 z "},"8":{"ha":744,"x_min":44,"x_max":656,"o":"m 365 1050 q 481 1032 428 1050 q 572 983 533 1014 q 632 909 610 951 q 654 819 654 867 q 643 744 654 775 q 615 690 632 714 q 577 644 597 665 q 540 600 557 624 q 531 583 538 596 q 540 564 525 569 q 658 464 617 536 q 700 303 700 392 q 671 165 700 224 q 593 66 642 106 q 481 6 544 26 q 351 -14 418 -14 q 228 2 285 -14 q 131 51 172 18 q 67 133 90 83 q 44 251 44 183 q 56 346 44 307 q 87 413 67 385 q 134 460 107 440 q 193 496 161 479 q 206 504 199 497 q 213 517 213 511 q 201 544 213 529 q 181 569 189 558 q 119 651 150 610 q 89 767 89 693 q 108 855 89 806 q 163 948 128 904 q 250 1021 199 992 q 365 1050 301 1050 m 368 953 q 269 923 308 953 q 231 824 231 893 q 259 740 231 776 q 324 676 288 703 q 394 636 360 650 q 442 622 429 622 q 465 638 453 622 q 489 676 478 653 q 507 727 500 700 q 514 779 514 754 q 504 844 514 813 q 476 899 494 875 q 431 938 458 924 q 368 953 403 953 m 397 74 l 399 74 q 459 86 429 74 q 512 120 489 99 q 549 173 535 142 q 564 242 564 204 q 528 340 564 296 q 448 416 493 385 q 360 465 403 447 q 304 482 318 482 q 251 466 272 482 q 216 424 229 450 q 197 362 203 397 q 192 289 192 326 q 210 201 192 240 q 257 133 228 161 q 323 89 286 104 q 397 74 360 74 z "},"9":{"ha":840,"x_min":44,"x_max":751,"o":"m 386 578 l 385 578 q 269 524 307 578 q 231 403 231 469 q 249 312 231 353 q 297 242 268 271 q 361 197 326 213 q 426 181 396 181 q 472 186 449 181 q 508 192 494 192 q 519 178 519 192 q 509 142 519 164 q 480 98 499 119 q 437 61 461 76 q 383 46 413 46 q 257 67 314 46 q 159 128 200 89 q 96 224 118 168 q 74 349 74 279 q 99 457 74 401 q 172 558 125 513 q 284 633 219 604 q 426 663 349 663 q 703 551 611 663 q 796 251 796 439 q 740 -17 796 97 q 587 -210 683 -131 q 360 -339 490 -290 q 83 -412 231 -387 q 44 -387 44 -412 q 56 -358 44 -374 q 94 -339 68 -343 q 309 -267 211 -318 q 478 -140 407 -215 q 588 33 549 -64 q 628 238 628 129 q 613 350 628 290 q 569 460 599 410 q 493 544 539 511 q 386 578 447 578 z "}," ":{"ha":694,"x_min":0,"x_max":0,"o":""},"!":{"ha":301,"x_min":44,"x_max":213,"o":"m 154 176 q 220 150 193 176 q 247 88 247 124 q 220 25 247 51 q 154 -1 193 -1 q 88 25 115 -1 q 61 88 61 51 q 88 150 61 124 q 154 176 115 176 m 222 215 q 187 224 203 221 q 153 226 171 226 q 81 215 125 226 q 86 257 85 233 q 88 308 88 281 q 81 433 88 364 q 65 576 74 503 q 51 722 57 649 q 44 857 44 794 q 67 1010 44 947 q 154 1072 89 1072 q 235 1009 214 1072 q 257 850 257 946 q 251 716 257 788 q 237 573 244 644 q 223 433 229 501 q 215 310 217 365 q 217 258 215 282 q 222 215 218 233 z "},"\"":{"ha":301,"x_min":44,"x_max":213,"o":"m 44 1063 l 131 1063 q 122 963 126 1000 q 113 905 118 925 q 101 878 107 885 q 88 872 94 872 q 74 878 81 872 q 63 905 68 885 q 53 963 57 925 q 44 1063 49 1000 m 171 1061 l 257 1061 q 249 961 253 999 q 239 903 244 924 q 227 877 233 883 q 214 871 221 871 q 201 877 207 871 q 189 903 194 883 q 179 961 183 924 q 171 1061 175 999 z "},"#":{"ha":585,"x_min":44,"x_max":496,"o":"m 65 444 l 68 485 l 211 476 l 228 653 l 265 653 l 249 474 l 358 467 l 375 653 l 413 653 l 394 464 l 540 456 l 538 415 l 390 424 l 372 236 l 519 228 l 517 188 l 368 196 l 350 3 l 313 3 l 332 199 l 222 206 l 203 3 l 165 3 l 185 208 l 44 217 l 47 257 l 189 249 l 207 436 l 65 444 m 244 433 l 226 246 l 336 239 l 354 426 l 244 433 z "},"$":{"ha":572,"x_min":44,"x_max":483,"o":"m 69 472 q 130 622 69 574 q 275 678 190 671 l 281 763 q 300 783 283 783 q 318 769 319 783 l 313 679 q 431 647 381 678 q 501 565 482 617 q 424 503 482 517 q 392 522 406 510 q 367 545 379 533 q 340 567 354 557 q 306 583 325 578 l 296 435 q 343 418 319 425 q 390 404 367 411 q 492 335 457 388 q 528 222 528 283 q 457 51 528 110 q 268 -10 386 -8 l 265 -61 q 240 -82 264 -82 q 228 -64 226 -82 l 231 -10 q 96 22 147 -6 q 44 113 44 50 q 99 167 44 167 q 138 158 122 167 q 168 136 153 149 q 199 111 183 124 q 238 90 214 99 l 250 293 q 185 319 218 306 q 127 353 153 333 q 85 402 101 374 q 69 472 69 431 m 193 517 q 212 484 193 501 q 260 451 231 467 l 269 588 q 213 572 233 588 q 193 517 193 557 m 390 169 q 360 236 390 213 q 286 278 329 260 l 274 83 q 280 83 274 83 q 289 82 286 82 q 363 103 335 82 q 390 169 390 125 z "},"%":{"ha":1294,"x_min":44,"x_max":1206,"o":"m 340 1074 l 344 1072 q 498 1058 410 1072 q 684 1034 586 1044 q 884 1026 782 1024 q 1078 1063 986 1029 l 1079 1060 l 1143 1060 l 239 -4 l 171 -4 l 1011 985 q 798 960 907 953 q 588 979 689 968 q 631 888 611 946 q 650 786 650 831 q 631 674 650 728 q 576 581 611 621 q 490 518 540 542 q 376 494 439 494 q 129 574 214 494 q 44 772 44 654 q 67 886 44 832 q 130 982 90 940 q 224 1049 169 1024 q 340 1074 278 1074 m 286 990 q 220 954 233 990 q 207 849 207 918 q 226 731 207 781 q 274 649 244 682 q 339 601 303 617 q 410 586 375 586 q 474 627 461 586 q 488 750 488 668 q 476 834 488 792 q 441 911 465 876 q 378 968 417 946 q 286 990 340 990 m 931 564 l 932 564 q 1052 542 994 564 q 1153 481 1110 519 q 1224 390 1197 442 q 1250 278 1250 338 q 1231 166 1250 219 q 1176 73 1211 113 q 1090 10 1140 33 q 976 -14 1039 -14 q 729 66 814 -14 q 644 264 644 146 q 666 378 644 324 q 725 474 688 432 q 815 540 763 515 q 931 564 868 564 m 886 482 q 820 446 833 482 q 807 340 807 410 q 826 223 807 272 q 874 141 844 174 q 939 93 903 108 q 1010 78 975 78 q 1074 119 1061 78 q 1088 242 1088 160 q 1076 326 1088 283 q 1041 403 1065 368 q 978 460 1017 438 q 886 482 940 482 z "},"&":{"ha":1104,"x_min":44,"x_max":1015,"o":"m 689 358 q 724 357 704 336 q 763 415 744 378 q 794 490 782 451 q 807 538 807 528 q 800 574 807 556 q 776 611 793 593 q 764 618 771 617 q 751 622 757 619 q 742 631 746 625 q 738 650 738 636 q 764 683 738 683 l 1019 683 q 1053 675 1047 683 q 1060 650 1060 667 q 1049 622 1060 628 q 1016 606 1038 615 q 963 574 994 596 q 893 497 932 551 q 860 455 883 485 q 813 392 838 425 q 770 329 789 360 q 751 283 751 299 q 760 263 751 276 q 781 235 768 250 q 807 206 793 221 q 831 179 821 192 q 895 115 868 135 q 943 88 922 96 q 982 75 964 79 q 1018 56 1000 71 q 1024 43 1024 51 q 1006 15 1024 29 q 964 0 989 0 l 838 0 q 743 29 793 0 q 643 107 693 58 q 621 125 625 125 q 612 120 617 125 q 597 107 607 115 q 472 24 542 56 q 306 -7 403 -7 q 114 48 183 -7 q 44 210 44 103 q 113 422 44 336 q 286 564 181 507 q 319 582 306 575 q 333 604 333 589 q 332 614 333 610 q 299 726 311 674 q 288 821 288 779 q 352 1010 288 947 q 539 1072 417 1072 q 681 1029 628 1072 q 735 917 735 986 q 688 745 735 807 q 556 642 642 683 q 533 628 536 632 q 540 601 531 625 q 564 550 551 575 q 594 497 576 525 q 634 435 611 468 q 689 358 657 401 m 550 156 q 567 181 567 167 q 554 210 567 192 q 457 353 503 276 q 376 507 411 431 q 363 530 367 526 q 340 519 358 533 q 254 429 281 476 q 228 336 228 382 q 243 259 228 297 q 283 186 258 221 q 419 101 346 101 q 550 156 479 101 m 558 1017 l 557 1015 q 480 974 510 1015 q 450 872 450 933 q 461 781 450 819 q 492 703 472 742 q 510 682 503 681 q 535 694 517 683 q 619 772 588 726 q 650 872 650 818 q 628 975 650 933 q 558 1017 607 1017 z "},"’":{"ha":175,"x_min":44,"x_max":86,"o":"m 44 1061 l 131 1061 q 122 961 126 999 q 113 903 118 924 q 101 877 107 883 q 88 871 94 871 q 74 877 81 871 q 63 903 68 883 q 53 961 57 924 q 44 1061 49 999 z "},"(":{"ha":325,"x_min":44,"x_max":236,"o":"m 226 1122 l 268 1097 q 181 877 218 1019 q 144 533 144 735 q 157 298 144 394 q 190 134 169 201 q 234 24 210 67 q 281 -49 258 -18 l 226 -64 q 153 28 186 -24 q 95 150 119 79 q 58 315 71 221 q 44 533 44 408 q 61 730 44 639 q 104 894 78 821 q 163 1026 131 968 q 226 1122 196 1083 z "},")":{"ha":325,"x_min":44,"x_max":236,"o":"m 99 1118 l 57 1093 q 144 873 107 1015 q 181 529 181 731 q 168 294 181 390 q 135 130 156 197 q 91 20 115 63 q 44 -53 67 -22 l 99 -68 q 172 24 139 -28 q 230 146 206 75 q 267 310 254 217 q 281 529 281 404 q 264 726 281 636 q 221 890 247 817 q 162 1021 194 964 q 99 1118 129 1078 z "},"*":{"ha":260,"x_min":44,"x_max":171,"o":"m 46 1011 q 67 1011 47 1017 q 113 993 86 1006 q 119 1043 114 1024 q 129 1063 124 1063 q 140 1043 135 1063 q 146 993 144 1024 q 214 1010 208 1022 q 163 964 219 999 q 209 919 211 933 q 144 936 207 906 q 138 891 142 908 q 129 874 135 874 q 120 891 124 874 q 114 936 117 908 q 51 920 53 907 q 97 964 49 933 q 58 993 71 979 q 46 1011 44 1007 z "},"+":{"ha":494,"x_min":44,"x_max":406,"o":"m 213 633 l 275 633 l 275 382 l 450 382 l 450 329 l 275 329 l 275 68 l 213 68 l 213 329 l 44 329 l 44 382 l 213 382 l 213 633 z "},",":{"ha":282,"x_min":44,"x_max":193,"o":"m 138 175 q 217 132 196 175 q 236 36 239 89 q 227 -21 235 8 q 208 -74 219 -50 q 184 -115 197 -99 q 160 -131 171 -131 q 128 -119 131 -131 q 135 -88 126 -107 q 155 -46 143 -69 q 165 1 167 -22 q 138 -3 153 -3 q 72 24 99 -3 q 44 86 44 50 q 72 149 44 122 q 138 175 99 175 z "},"−":{"ha":494,"x_min":44,"x_max":406,"o":"m 44 382 l 450 382 l 450 329 l 44 329 l 44 382 z "},".":{"ha":275,"x_min":44,"x_max":186,"o":"m 138 175 q 203 149 176 175 q 231 86 231 122 q 203 24 231 50 q 138 -3 176 -3 q 72 24 99 -3 q 44 86 44 50 q 72 149 44 122 q 138 175 99 175 z "},"/":{"ha":489,"x_min":44,"x_max":400,"o":"m 378 1103 l 444 1103 l 111 29 l 44 29 l 378 1103 z "},":":{"ha":276,"x_min":44,"x_max":188,"o":"m 139 175 q 205 149 178 175 q 232 86 232 122 q 205 24 232 50 q 139 -3 178 -3 q 73 24 100 -3 q 46 86 46 50 q 73 149 46 122 q 139 175 100 175 m 138 650 q 203 624 176 650 q 231 561 231 597 q 203 499 231 525 q 138 472 176 472 q 72 499 99 472 q 44 561 44 525 q 72 624 44 597 q 138 650 99 650 z "},";":{"ha":282,"x_min":44,"x_max":193,"o":"m 138 175 q 217 132 196 175 q 236 36 239 89 q 227 -21 235 8 q 208 -74 219 -50 q 184 -115 197 -99 q 160 -131 171 -131 q 128 -119 131 -131 q 135 -88 126 -107 q 155 -46 143 -69 q 165 1 167 -22 q 138 -3 153 -3 q 72 24 99 -3 q 44 86 44 50 q 72 149 44 122 q 138 175 99 175 m 138 649 q 203 622 176 649 q 231 560 231 596 q 203 497 231 524 q 138 471 176 471 q 72 497 99 471 q 44 560 44 524 q 72 622 44 596 q 138 649 99 649 z "},"=":{"ha":496,"x_min":44,"x_max":407,"o":"m 46 296 l 451 296 l 451 243 l 46 243 l 46 296 m 44 472 l 450 472 l 450 419 l 44 419 l 44 472 z "},"?":{"ha":678,"x_min":44,"x_max":589,"o":"m 250 174 q 316 147 289 174 q 343 85 343 121 q 316 22 343 49 q 250 -4 289 -4 q 184 22 211 -4 q 157 85 157 49 q 184 147 157 121 q 250 174 211 174 m 315 950 q 260 929 283 950 q 217 885 238 908 q 176 844 196 861 q 129 832 156 826 q 65 861 94 839 q 47 917 36 883 q 83 975 58 946 q 142 1027 107 1004 q 222 1065 178 1050 q 315 1079 265 1079 q 424 1062 368 1079 q 527 1013 481 1044 q 603 937 574 981 q 633 839 633 893 q 608 686 633 744 q 545 590 583 628 q 463 528 507 553 q 380 478 418 504 q 317 419 342 453 q 292 331 292 386 q 315 210 292 279 q 278 220 297 215 q 240 225 258 225 q 211 222 225 225 q 176 213 197 218 q 158 357 158 293 q 180 481 158 431 q 233 567 201 531 q 303 633 265 604 q 372 690 340 661 q 426 753 404 718 q 447 839 447 789 q 412 917 447 883 q 315 950 376 950 z "},"@":{"ha":926,"x_min":44,"x_max":838,"o":"m 463 833 l 460 833 q 326 803 379 833 q 240 722 272 774 q 194 597 208 669 q 181 440 181 525 q 194 285 181 356 q 240 163 208 214 q 326 84 272 113 q 457 56 379 56 q 624 68 568 56 q 705 94 679 81 q 742 117 731 108 q 776 118 753 125 q 786 103 786 114 q 768 71 786 90 q 711 34 750 51 q 610 4 672 17 q 460 -8 549 -8 q 298 27 374 -8 q 166 123 222 63 q 77 265 110 183 q 44 440 44 347 q 77 615 44 533 q 166 758 110 697 q 298 855 222 819 q 460 890 374 890 q 611 868 536 890 q 747 800 686 846 q 844 683 807 754 q 882 517 882 613 q 865 417 882 471 q 815 317 849 364 q 729 240 781 271 q 608 208 678 208 q 554 219 572 208 q 528 241 536 229 q 517 263 519 253 q 511 274 515 274 q 482 263 496 274 q 451 241 468 253 q 413 219 435 229 q 361 208 392 208 q 276 230 310 208 q 243 315 243 251 q 287 406 243 372 q 388 463 331 439 q 428 479 407 471 q 468 499 450 488 q 498 524 486 510 q 510 560 510 539 q 485 628 510 611 q 421 646 461 646 q 372 628 385 646 q 352 590 358 611 q 339 551 346 568 q 308 533 332 533 q 269 554 279 533 q 260 601 260 575 q 315 680 260 654 q 449 706 371 706 q 528 697 496 706 q 582 666 561 689 q 613 603 603 643 q 622 497 622 563 l 622 468 q 617 395 622 419 q 613 336 613 371 q 627 283 613 293 q 664 274 642 274 q 707 298 688 274 q 740 358 726 322 q 760 434 753 393 q 768 508 768 475 q 753 631 768 572 q 704 735 739 690 q 610 806 669 779 q 463 833 551 833 m 510 365 l 510 413 q 507 433 510 421 q 492 446 504 446 q 463 438 483 446 q 422 413 443 429 q 385 374 401 397 q 369 319 369 350 q 381 297 369 304 q 408 290 392 290 q 442 296 424 290 q 475 312 460 301 q 500 336 490 322 q 510 365 510 350 z "},"A":{"ha":1297,"x_min":44,"x_max":1208,"o":"m 1108 185 q 1151 112 1132 131 q 1185 87 1169 93 q 1215 76 1201 81 q 1243 49 1229 72 q 1253 19 1253 31 q 1228 -6 1253 -3 q 1186 -8 1204 -8 l 1024 -8 q 966 9 989 -8 q 924 58 943 26 q 889 133 906 89 q 850 231 872 178 l 828 283 q 800 301 822 296 q 747 307 778 307 l 454 307 q 390 302 418 307 q 356 282 361 297 q 325 190 336 228 q 307 124 314 151 q 297 78 300 97 q 292 44 293 60 q 256 2 289 11 q 146 -7 222 -7 q 44 36 44 -7 q 72 86 44 72 q 121 100 99 100 q 159 124 142 100 q 194 192 176 147 l 488 906 q 494 926 492 917 q 497 944 497 935 q 484 970 497 963 q 454 986 471 978 q 424 1008 438 994 q 411 1050 411 1022 q 426 1058 411 1056 q 465 1061 442 1061 q 531 1059 497 1061 q 583 1057 565 1057 q 628 1060 606 1057 q 672 1063 651 1063 q 724 1051 700 1063 q 767 996 749 1039 q 786 935 781 963 q 803 885 792 908 l 1108 185 m 576 824 l 425 453 q 421 433 421 440 q 436 422 421 422 l 749 422 q 763 433 763 422 q 758 447 763 439 l 601 824 q 589 836 597 836 q 576 824 581 836 z "},"B":{"ha":1033,"x_min":44,"x_max":944,"o":"m 143 301 l 143 836 q 94 972 143 924 q 70 991 83 985 q 56 1026 57 997 q 82 1060 56 1060 q 189 1063 140 1060 q 285 1069 238 1067 q 385 1075 332 1072 q 504 1078 438 1078 q 665 1060 592 1078 q 792 1002 739 1042 q 875 901 846 963 q 904 751 904 839 q 884 646 904 692 q 831 567 864 600 q 817 544 817 554 q 835 525 817 533 q 957 410 925 481 q 989 258 989 339 q 958 135 989 186 q 881 53 926 85 q 785 6 836 21 q 692 -8 733 -8 l 88 -8 q 58 1 71 -8 q 44 21 44 11 l 44 42 q 51 67 44 58 q 67 82 58 76 q 87 93 76 88 q 106 107 97 99 q 127 144 119 121 q 138 193 135 167 q 142 248 142 219 q 143 301 143 276 m 357 400 q 358 322 357 378 q 358 203 358 267 q 363 142 358 164 q 381 110 367 121 q 425 98 396 100 q 503 96 454 96 l 544 96 q 705 138 642 96 q 768 286 768 181 q 754 378 768 333 q 707 464 740 422 q 680 473 700 474 q 636 467 660 472 q 589 457 613 463 q 553 451 565 451 l 518 451 q 447 467 482 453 q 389 481 411 481 q 363 462 369 481 q 357 400 357 443 m 360 631 q 373 594 360 611 q 408 563 386 576 q 456 542 429 550 q 510 535 483 535 q 592 553 556 535 q 656 600 629 571 q 697 666 682 629 q 711 739 711 703 q 647 932 711 874 q 451 990 582 990 q 375 963 390 990 q 360 894 360 936 l 360 631 z "},"C":{"ha":1110,"x_min":44,"x_max":1021,"o":"m 44 539 q 91 750 44 651 q 215 922 138 849 q 394 1038 293 996 q 604 1081 496 1081 q 726 1069 681 1081 q 802 1044 772 1057 q 851 1019 832 1031 q 893 1007 871 1007 q 921 1024 911 1007 q 931 1043 928 1033 q 953 1053 933 1053 q 986 1024 978 1053 q 1015 896 990 965 q 1050 763 1039 826 q 1040 745 1053 751 q 1010 739 1028 739 q 982 745 992 739 q 966 761 972 751 q 955 783 960 771 q 940 806 950 794 q 800 930 878 878 q 617 982 722 982 q 372 874 463 982 q 281 576 281 767 l 281 572 q 388 240 281 360 q 697 119 494 119 q 864 147 783 119 q 1010 218 944 175 q 1031 225 1018 225 q 1055 211 1044 225 q 1065 179 1065 197 q 1060 155 1065 168 q 1046 131 1056 142 q 883 26 986 64 q 619 -11 781 -11 q 375 33 482 -11 q 194 153 268 78 q 83 328 121 228 q 44 539 44 428 z "},"D":{"ha":1206,"x_min":44,"x_max":1117,"o":"m 554 1076 q 803 1033 692 1076 q 995 913 915 989 q 1118 736 1075 838 q 1161 518 1161 635 q 1114 306 1161 406 q 985 132 1067 206 q 793 15 903 58 q 558 -28 683 -28 q 466 -19 503 -22 q 398 -15 429 -17 q 333 -14 367 -14 q 247 -14 299 -14 l 88 -14 q 58 -11 71 -14 q 44 11 44 -8 l 44 32 q 51 58 44 49 q 67 72 58 67 q 87 83 76 78 q 106 97 97 89 q 127 134 119 111 q 138 183 135 157 q 142 238 142 210 q 143 292 143 267 l 143 826 q 94 963 143 914 q 70 981 83 975 q 56 1017 57 988 q 82 1050 56 1050 l 257 1054 q 340 1059 307 1056 q 403 1067 374 1063 q 468 1074 433 1071 q 554 1076 503 1076 m 943 518 l 950 518 q 912 691 947 610 q 815 833 876 772 q 671 930 754 894 q 489 965 588 965 q 432 960 454 965 q 394 936 407 957 q 374 887 381 915 q 366 826 367 858 q 365 769 365 794 l 365 236 q 366 193 365 215 q 371 151 367 171 q 384 118 375 132 q 410 100 393 104 q 473 86 436 94 q 558 79 510 78 q 739 115 665 81 q 858 210 813 150 q 923 349 903 269 q 943 518 943 428 z "},"E":{"ha":1150,"x_min":44,"x_max":1061,"o":"m 143 289 l 143 824 q 94 960 143 911 q 70 978 83 972 q 56 1014 57 985 q 61 1040 56 1029 q 82 1051 67 1051 l 929 1051 q 989 1033 989 1051 q 982 1018 989 1028 l 903 917 q 882 885 892 903 q 854 867 872 867 q 819 876 838 867 q 786 899 801 886 q 695 940 758 921 q 538 960 632 960 q 454 958 492 960 q 399 950 417 956 q 376 936 383 946 q 366 915 368 926 q 365 892 364 904 q 365 871 365 879 l 365 750 q 424 683 365 683 l 740 683 q 788 697 775 683 q 806 725 800 710 q 820 753 813 740 q 856 767 828 767 q 897 733 897 767 q 895 683 897 708 q 893 633 893 658 q 895 582 893 608 q 897 529 897 556 q 857 496 897 496 q 824 519 836 504 q 798 547 811 533 q 764 571 785 561 q 706 581 743 581 l 403 581 q 365 540 365 581 l 365 229 q 371 144 365 178 q 408 110 376 110 l 682 110 q 826 133 765 110 q 929 184 888 156 q 997 235 971 213 q 1039 258 1024 258 q 1104 231 1107 258 q 1090 201 1104 217 q 1025 123 1057 163 q 965 42 993 83 q 935 4 950 22 q 883 -14 919 -14 l 94 -14 q 61 -8 78 -14 q 44 8 44 -1 l 44 29 q 51 55 44 46 q 67 69 58 64 q 87 81 76 75 q 106 94 97 86 q 127 131 119 108 q 138 181 135 154 q 142 235 142 207 q 143 289 143 264 z "},"F":{"ha":1033,"x_min":44,"x_max":944,"o":"m 143 292 l 143 826 q 94 963 143 914 q 70 981 83 975 q 56 1017 57 988 q 61 1043 56 1032 q 82 1054 67 1054 l 929 1054 q 989 1036 989 1054 q 982 1021 989 1031 l 903 919 q 882 888 892 906 q 854 869 872 869 q 819 879 838 869 q 786 901 801 889 q 695 943 758 924 q 538 963 632 963 q 454 960 492 963 q 399 953 417 958 q 376 939 383 949 q 366 918 368 929 q 365 894 364 907 q 365 874 365 882 l 365 753 q 424 686 365 686 l 740 686 q 788 699 775 686 q 806 728 800 713 q 820 756 813 743 q 856 769 828 769 q 897 736 897 769 q 895 686 897 711 q 893 636 893 661 q 895 585 893 611 q 897 532 897 558 q 857 499 897 499 q 824 522 836 507 q 798 550 811 536 q 764 574 785 564 q 706 583 743 583 l 403 583 q 365 543 365 583 l 365 165 q 367 132 365 144 q 372 108 369 119 q 376 85 374 97 q 378 53 378 72 q 325 -14 378 -3 l 88 -14 q 58 -6 71 -14 q 44 11 44 1 l 44 32 q 51 58 44 49 q 67 72 58 67 q 87 83 76 78 q 106 97 97 89 q 127 134 119 111 q 138 183 135 157 q 142 238 142 210 q 143 292 143 267 z "},"G":{"ha":1218,"x_min":44,"x_max":1129,"o":"m 1103 183 q 1112 109 1103 131 q 1133 78 1121 88 q 1156 63 1144 69 q 1174 33 1168 56 q 1146 -11 1174 -11 l 1039 -12 q 965 11 1000 -12 q 897 42 921 42 q 872 37 885 42 q 840 24 858 32 q 744 -6 799 3 q 619 -14 689 -14 q 375 31 482 -14 q 194 150 268 75 q 83 325 121 225 q 44 536 44 425 q 91 747 44 649 q 215 919 138 846 q 394 1035 293 993 q 604 1078 496 1078 q 728 1068 681 1078 q 806 1047 775 1058 q 858 1025 838 1035 q 901 1015 879 1015 q 928 1033 918 1015 q 944 1057 933 1044 q 974 1069 956 1069 q 1000 1056 986 1069 q 1015 1026 1014 1043 q 1030 913 1019 968 q 1051 793 1040 857 q 1044 771 1053 782 q 1018 760 1036 760 q 971 770 981 760 q 943 803 961 781 q 801 927 881 875 q 617 979 722 979 q 372 872 463 979 q 281 574 281 764 l 281 569 q 388 237 281 357 q 697 117 494 117 q 825 133 763 117 q 858 148 843 142 q 874 178 872 154 q 878 239 876 213 q 881 286 881 265 q 870 365 882 343 q 832 413 858 388 q 807 431 819 424 q 793 467 794 438 q 819 500 793 500 l 1075 500 q 1109 484 1103 500 q 1115 451 1115 468 l 1115 433 q 1109 375 1115 403 q 1103 324 1103 347 l 1103 183 z "},"H":{"ha":1204,"x_min":44,"x_max":1115,"o":"m 143 297 l 143 832 q 94 968 143 919 q 70 987 83 981 q 56 1022 57 993 q 82 1056 56 1056 l 338 1056 q 371 1040 364 1056 q 378 1007 378 1024 l 378 989 q 372 931 378 958 q 365 879 365 903 l 365 707 q 385 683 365 683 l 853 683 q 865 685 860 683 q 871 694 871 686 l 871 832 q 857 913 871 881 q 818 969 843 944 q 794 988 807 982 q 779 1024 781 994 q 806 1057 779 1057 l 1061 1057 q 1095 1041 1089 1057 q 1101 1008 1101 1025 l 1101 990 q 1095 931 1101 958 q 1089 881 1089 903 l 1089 436 l 1089 186 q 1098 112 1089 133 q 1119 81 1107 90 q 1142 65 1131 72 q 1160 36 1154 58 q 1132 -8 1160 -8 l 956 -8 q 903 8 922 -8 q 874 53 883 25 q 863 114 865 81 q 860 181 860 147 l 860 232 q 865 328 860 283 q 871 443 871 372 l 871 565 q 856 582 871 582 l 410 582 q 365 539 365 582 l 365 171 q 367 138 365 150 q 372 114 369 125 q 376 90 374 103 q 378 58 378 78 q 325 -8 378 3 l 88 -8 q 58 -3 71 -8 q 44 17 44 1 l 44 38 q 51 63 44 54 q 67 78 58 72 q 87 89 76 83 q 106 103 97 94 q 127 140 119 117 q 138 189 135 163 q 142 244 142 215 q 143 297 143 272 z "},"I":{"ha":422,"x_min":44,"x_max":333,"o":"m 143 365 l 143 783 l 143 833 q 94 969 143 921 q 70 988 83 982 q 56 1024 57 994 q 82 1057 56 1057 l 338 1057 q 371 1041 364 1057 q 378 1008 378 1025 l 378 990 q 372 931 378 958 q 365 881 365 903 l 365 783 l 365 363 l 365 172 q 367 139 365 151 q 372 115 369 126 q 376 92 374 104 q 378 60 378 79 q 325 -7 378 4 l 88 -7 q 58 -3 71 -7 q 44 18 44 1 l 44 39 q 51 65 44 56 q 67 79 58 74 q 87 90 76 85 q 106 104 97 96 q 127 141 119 118 q 138 190 135 164 q 142 245 142 217 q 143 299 143 274 l 143 365 z "},"J":{"ha":468,"x_min":-117,"x_max":482,"o":"m 131 779 l 131 839 q 82 975 131 926 q 58 994 71 988 q 43 1029 44 1000 q 69 1063 43 1063 l 325 1063 q 359 1047 353 1063 q 365 1014 365 1031 l 365 996 q 361 936 365 964 q 357 886 357 908 l 357 789 l 357 367 q 356 256 357 314 q 349 138 354 197 q 335 21 344 79 q 308 -89 325 -37 q 265 -172 293 -133 q 203 -239 238 -211 q 133 -283 169 -267 q 65 -299 97 -299 q -64 -281 -12 -299 q -117 -236 -115 -264 q -107 -211 -117 -222 q -92 -195 -104 -207 q -69 -167 -81 -183 q -53 -131 -58 -149 q -35 -114 -49 -114 l -21 -114 q 6 -128 -3 -114 q 24 -158 15 -142 q 46 -187 33 -174 q 82 -201 58 -201 q 121 -185 111 -201 q 131 -137 131 -169 l 131 779 z "},"K":{"ha":1139,"x_min":44,"x_max":1050,"o":"m 756 1050 l 994 1050 q 1022 1029 1022 1050 q 1007 1001 1015 1014 q 985 982 999 989 q 931 956 960 969 q 867 924 901 943 q 794 874 833 904 q 708 796 754 843 l 608 693 q 593 663 593 678 q 597 649 593 654 l 763 394 l 758 394 l 918 176 q 976 108 951 129 q 1019 78 1000 88 q 1054 63 1038 68 q 1089 43 1071 58 q 1094 31 1094 39 q 1077 2 1094 17 q 1035 -12 1060 -12 l 908 -12 q 823 8 863 -12 q 747 65 783 29 q 674 148 710 100 q 604 250 639 196 q 533 363 569 304 q 456 478 496 422 q 426 494 443 494 q 409 486 418 493 q 381 460 400 479 q 365 419 365 444 l 365 286 l 365 163 q 367 129 365 142 q 372 106 369 117 q 376 82 374 94 q 378 50 378 69 q 325 -17 378 -6 l 88 -17 q 58 -10 71 -17 q 44 8 44 -3 l 44 29 q 51 55 44 46 q 67 69 58 64 q 87 81 76 75 q 106 94 97 86 q 127 131 119 108 q 138 181 135 154 q 142 235 142 207 q 143 289 143 264 l 143 824 q 94 960 143 911 q 70 978 83 972 q 56 1014 57 985 q 82 1047 56 1047 l 338 1047 q 371 1031 364 1047 q 378 999 378 1015 l 378 981 q 372 922 378 950 q 365 871 365 894 l 365 622 q 374 600 365 600 q 386 608 378 600 l 646 875 q 699 931 675 904 q 722 1006 722 958 q 756 1050 722 1050 z "},"L":{"ha":1051,"x_min":44,"x_max":963,"o":"m 143 292 l 143 826 q 94 963 143 914 q 70 981 83 975 q 56 1017 57 988 q 82 1050 56 1050 l 338 1050 q 371 1034 364 1050 q 378 1001 378 1018 l 378 983 q 372 925 378 953 q 365 874 365 897 l 365 296 q 365 249 365 271 q 364 208 364 228 q 385 127 364 153 q 489 101 407 101 l 629 101 q 765 129 710 101 q 860 190 821 157 q 926 250 899 222 q 975 278 953 278 q 1001 267 996 278 q 1007 239 1007 256 q 971 135 1006 182 q 900 44 936 89 q 873 5 885 24 q 843 -14 861 -14 l 88 -14 q 58 -8 71 -14 q 44 11 44 -3 l 44 32 q 51 58 44 49 q 67 72 58 67 q 87 83 76 78 q 106 97 97 89 q 127 134 119 111 q 138 183 135 157 q 142 238 142 210 q 143 292 143 267 z "},"M":{"ha":1686,"x_min":44,"x_max":1597,"o":"m 1228 1051 l 1444 1051 q 1492 1011 1492 1051 q 1476 986 1492 993 q 1441 971 1460 979 q 1408 948 1422 963 q 1400 900 1394 933 l 1482 396 l 1479 396 l 1528 181 q 1560 109 1540 125 q 1597 89 1579 93 q 1628 80 1615 85 q 1642 43 1642 75 q 1633 9 1642 32 q 1615 -14 1625 -14 l 1439 -14 q 1383 3 1406 -14 q 1344 47 1360 19 q 1317 108 1328 75 q 1300 175 1307 142 l 1288 226 q 1289 240 1293 208 q 1276 332 1285 272 q 1254 466 1267 392 q 1231 606 1242 540 q 1210 717 1219 672 q 1199 761 1201 761 q 1182 735 1193 761 l 921 110 q 890 38 901 61 q 868 14 878 14 q 846 33 858 14 q 810 93 833 53 l 442 740 q 426 756 432 756 q 415 733 419 756 l 290 38 q 254 -6 283 3 q 200 -15 225 -15 l 83 -15 q 44 35 44 -15 q 76 71 44 71 q 134 94 110 71 q 176 150 158 117 q 203 222 193 183 q 219 290 214 260 q 281 645 258 519 q 315 831 304 771 q 330 903 326 890 q 333 918 333 915 q 322 950 333 936 q 285 964 310 964 q 214 1025 214 964 q 260 1051 214 1051 l 428 1051 q 480 1050 463 1051 q 508 1040 497 1049 q 528 1015 519 1032 q 556 965 538 997 l 878 410 q 893 392 886 392 q 907 411 899 392 l 1139 943 q 1156 980 1147 961 q 1174 1015 1164 999 q 1198 1041 1185 1031 q 1228 1051 1211 1051 z "},"N":{"ha":1246,"x_min":44,"x_max":1157,"o":"m 171 292 l 171 789 q 172 808 171 794 q 172 838 172 821 q 170 879 172 857 q 163 920 168 901 q 145 952 157 939 q 115 965 133 965 q 44 1026 44 967 q 90 1053 44 1053 l 258 1053 q 313 1051 293 1053 q 349 1042 333 1049 q 379 1019 364 1035 q 419 978 394 1004 l 938 431 q 947 419 944 425 q 953 413 950 413 q 965 428 958 413 l 965 893 q 958 949 965 922 q 950 1010 950 976 q 981 1053 950 1053 l 1164 1053 q 1201 1024 1201 1053 q 1184 999 1201 1006 q 1145 983 1167 993 q 1106 953 1124 974 q 1089 889 1089 933 l 1089 149 q 1100 107 1089 121 q 1125 84 1111 93 q 1150 67 1139 75 q 1161 43 1161 60 q 1101 -14 1161 -14 l 1089 -14 l 1089 -15 l 1006 -15 q 965 26 965 -15 l 965 76 q 951 114 965 100 l 332 767 q 319 781 326 772 q 304 789 313 789 q 296 765 296 789 l 296 51 q 262 3 296 17 q 200 -11 228 -11 l 83 -11 q 44 39 44 -11 q 76 75 44 75 q 128 97 110 75 q 156 152 147 119 q 168 223 165 185 q 171 292 171 261 z "},"O":{"ha":1213,"x_min":44,"x_max":1124,"o":"m 606 1067 q 824 1023 722 1067 q 1003 904 926 979 q 1124 728 1079 829 q 1168 513 1168 628 q 1124 297 1168 397 q 1003 122 1079 197 q 824 3 926 47 q 606 -40 722 -40 q 360 3 465 -40 q 185 122 256 47 q 80 297 115 197 q 44 513 44 397 q 78 728 44 628 q 180 904 111 829 q 354 1023 249 979 q 606 1067 460 1067 m 982 433 q 940 660 982 563 q 832 824 897 758 q 687 924 767 890 q 532 958 607 958 q 446 944 496 958 q 350 893 396 931 q 272 788 304 856 q 240 611 240 719 q 276 426 240 515 q 376 269 311 338 q 533 159 442 200 q 735 118 624 118 q 809 131 767 118 q 890 179 851 144 q 955 276 928 214 q 982 433 982 338 z "},"P":{"ha":961,"x_min":44,"x_max":872,"o":"m 504 1067 q 667 1040 592 1065 q 799 964 743 1014 q 885 840 854 914 q 917 668 917 765 q 873 497 917 561 q 769 396 829 432 q 647 348 710 360 q 544 336 583 336 q 491 341 521 336 q 435 351 461 346 q 391 360 410 357 q 369 363 372 364 q 365 336 365 360 l 365 164 q 367 131 365 143 q 372 107 369 118 q 376 83 374 96 q 378 51 378 71 q 325 -15 378 -4 l 88 -15 q 58 -10 71 -15 q 44 10 44 -4 l 44 31 q 51 56 44 47 q 67 71 58 65 q 87 82 76 76 q 106 96 97 88 q 127 133 119 110 q 138 182 135 156 q 142 237 142 208 q 143 290 143 265 l 143 825 q 94 961 143 913 q 70 980 83 974 q 56 1015 57 986 q 82 1049 56 1049 q 189 1051 140 1049 q 285 1057 238 1054 q 385 1063 332 1060 q 504 1067 438 1065 m 697 668 q 690 758 697 707 q 657 856 682 810 q 584 935 632 903 q 454 967 536 967 q 379 940 393 967 q 365 872 365 914 l 365 503 q 411 451 365 464 q 511 436 457 438 q 608 457 571 435 q 664 513 644 479 q 690 589 683 547 q 697 668 697 631 z "},"Q":{"ha":1211,"x_min":44,"x_max":1178,"o":"m 865 -56 q 933 -76 903 -56 q 993 -123 964 -97 q 1053 -169 1022 -149 q 1122 -190 1083 -190 l 1189 -178 q 1213 -187 1206 -178 q 1222 -211 1219 -197 q 1036 -286 1222 -286 q 895 -265 947 -286 q 807 -219 843 -244 q 741 -172 771 -193 q 667 -151 711 -151 q 640 -160 651 -151 q 606 -168 628 -168 q 594 -162 599 -168 q 589 -140 589 -157 q 597 -117 589 -129 q 617 -94 606 -106 q 631 -84 624 -89 q 638 -76 638 -79 q 615 -72 638 -72 q 368 -22 475 -72 q 190 110 261 28 q 81 299 118 192 q 44 521 44 406 q 80 735 44 636 q 186 908 115 835 q 365 1023 257 981 q 618 1065 472 1065 q 836 1022 735 1065 q 1014 906 938 979 q 1134 731 1090 832 q 1178 517 1178 631 q 1153 354 1178 436 q 1086 200 1128 272 q 990 72 1044 128 q 874 -10 935 17 q 840 -39 840 -25 q 849 -51 840 -46 q 865 -56 858 -56 m 992 421 q 952 649 992 550 q 849 814 913 747 q 709 915 786 881 q 557 950 632 950 q 472 935 521 950 q 378 882 422 921 q 303 774 333 843 q 272 597 272 706 q 296 407 272 501 q 371 238 319 313 q 501 117 422 164 q 692 71 581 71 q 774 90 722 71 q 873 150 825 108 q 956 258 921 192 q 992 421 992 325 z "},"R":{"ha":1047,"x_min":44,"x_max":958,"o":"m 143 290 l 143 825 q 94 961 143 913 q 70 980 83 974 q 56 1015 57 986 q 82 1049 56 1049 q 189 1052 140 1049 q 285 1058 238 1056 q 385 1064 332 1061 q 504 1067 438 1067 q 665 1049 592 1067 q 792 991 739 1031 q 875 890 846 951 q 904 740 904 828 q 888 643 904 683 q 847 573 872 603 q 792 522 822 543 q 732 482 761 500 q 715 472 722 476 q 707 460 707 468 q 715 442 707 454 l 754 369 q 856 190 815 250 q 922 101 896 129 q 966 65 949 74 q 997 42 983 57 q 1001 26 1006 36 q 986 8 997 17 q 960 -8 975 -1 q 932 -14 946 -14 l 811 -14 q 752 -1 778 -14 q 703 42 726 13 q 653 121 679 72 q 592 240 626 169 q 556 315 575 275 q 513 401 536 356 q 485 427 504 417 q 446 444 467 438 q 406 454 425 451 q 379 457 388 457 q 362 442 367 457 q 357 389 357 428 q 360 331 357 372 q 367 240 364 290 q 374 140 371 190 q 378 51 378 89 q 325 -15 378 -4 l 88 -15 q 58 -10 71 -15 q 44 10 44 -4 l 44 31 q 51 56 44 47 q 67 71 58 65 q 87 82 76 76 q 106 96 97 88 q 127 133 119 110 q 138 182 135 156 q 142 237 142 208 q 143 290 143 265 m 693 715 q 683 800 693 754 q 645 885 672 846 q 572 952 618 925 q 451 979 525 979 q 375 952 390 979 q 360 883 360 925 l 360 619 q 373 583 360 600 q 408 552 386 565 q 456 531 429 539 q 510 524 483 524 q 590 540 556 524 q 647 582 624 556 q 681 643 669 608 q 693 715 693 678 m 742 392 l 740 393 l 744 393 l 742 392 z "},"S":{"ha":1038,"x_min":44,"x_max":949,"o":"m 797 289 l 797 292 q 745 399 797 360 q 615 465 693 438 q 444 513 536 492 q 274 567 353 535 q 144 650 196 600 q 92 783 92 700 q 117 917 92 861 q 186 1009 142 972 q 292 1063 231 1046 q 424 1081 353 1081 q 514 1073 478 1081 q 581 1056 550 1065 q 641 1040 611 1047 q 713 1032 671 1032 q 735 1038 728 1032 q 747 1051 742 1044 q 760 1065 753 1058 q 781 1071 767 1071 q 828 1040 813 1071 q 846 968 844 1010 q 858 933 847 947 q 880 907 868 919 q 901 881 892 894 q 911 847 911 868 q 907 822 911 838 q 885 806 903 806 q 813 830 838 806 q 753 883 788 854 q 656 937 718 913 q 474 960 594 961 q 406 951 440 956 q 344 935 371 946 q 299 905 317 924 q 282 854 282 886 q 306 797 282 817 q 364 766 329 778 q 439 746 399 754 q 513 724 479 738 q 688 674 601 703 q 842 600 774 644 q 951 492 910 556 q 993 339 993 429 q 957 166 993 236 q 856 52 921 96 q 699 -11 790 8 q 499 -31 608 -31 q 365 -17 426 -31 q 243 8 303 -4 q 224 10 229 13 q 215 1 219 7 q 203 -12 211 -6 q 176 -18 196 -18 q 111 9 128 -19 q 94 79 94 38 q 87 110 94 99 q 69 133 79 122 q 52 159 60 144 q 44 199 44 174 q 51 238 44 221 q 79 254 57 254 q 137 227 99 254 q 231 167 175 200 q 358 108 286 135 q 517 81 429 81 q 625 88 574 81 q 715 118 676 96 q 775 181 753 140 q 797 289 797 222 z "},"T":{"ha":1228,"x_min":44,"x_max":1139,"o":"m 500 294 l 500 829 q 501 853 500 840 q 501 879 501 867 q 497 921 501 903 q 472 939 492 939 q 301 920 369 939 q 190 879 233 901 q 119 839 146 857 q 72 821 93 821 q 44 843 44 821 q 58 882 44 854 l 138 1036 q 181 1085 163 1085 q 228 1074 211 1079 q 258 1064 244 1068 q 286 1057 271 1060 q 329 1054 301 1054 l 1133 1054 l 1154 1054 q 1175 1049 1167 1054 q 1183 1024 1183 1043 q 1174 981 1183 1003 q 1153 938 1165 960 q 1131 897 1142 917 q 1117 858 1119 876 q 1099 835 1114 842 q 1064 829 1083 829 q 1036 849 1053 829 q 988 892 1019 868 q 906 936 957 917 q 776 956 856 956 q 741 947 751 956 q 727 927 731 939 q 724 901 724 915 q 722 876 725 888 l 722 168 q 724 135 722 147 q 728 111 726 122 q 733 88 731 100 q 735 56 735 75 q 682 -11 735 0 l 444 -11 q 415 -7 428 -11 q 401 14 401 -3 l 401 35 q 408 60 401 51 q 424 75 415 69 q 444 86 433 81 q 463 100 454 92 q 494 185 489 128 q 500 294 500 243 z "},"U":{"ha":1153,"x_min":44,"x_max":1064,"o":"m 815 1050 l 1068 1050 q 1106 1018 1106 1050 q 1089 981 1106 997 q 1052 941 1072 964 q 1015 883 1032 918 q 999 792 999 849 l 999 386 l 997 386 l 997 219 q 1015 140 997 167 q 1053 99 1032 114 q 1091 72 1074 83 q 1108 39 1108 61 q 1101 17 1108 28 q 1083 -1 1093 7 q 1060 -13 1072 -8 q 1042 -18 1049 -18 l 865 -18 q 806 8 826 -18 q 786 60 786 33 q 775 75 786 75 q 754 67 768 75 q 617 1 696 31 q 435 -29 538 -29 q 307 -10 363 -29 q 206 44 251 8 q 163 119 178 74 q 142 218 149 165 q 135 326 136 271 q 133 429 133 381 q 132 621 133 522 q 131 824 131 719 q 117 925 131 897 q 88 963 104 953 q 58 980 71 974 q 44 1017 44 986 q 71 1050 44 1050 l 326 1050 q 360 1034 353 1050 q 367 1001 367 1018 l 367 983 q 360 925 367 953 q 353 875 353 897 l 353 304 q 415 143 353 201 q 462 117 433 125 q 522 108 490 108 q 622 131 564 108 q 733 181 681 153 q 779 256 772 200 q 786 429 786 311 l 786 746 q 783 808 786 769 q 778 888 781 847 q 772 965 775 929 q 769 1017 769 1000 q 783 1046 769 1042 q 815 1050 796 1050 z "},"V":{"ha":1221,"x_min":44,"x_max":1132,"o":"m 1013 838 l 753 158 q 742 139 749 147 q 738 115 736 131 q 770 67 753 86 q 788 8 788 49 q 761 -18 788 -18 l 589 -18 q 532 6 544 -11 q 504 47 519 24 l 183 826 q 135 909 160 885 q 90 946 110 933 q 57 971 69 958 q 44 1019 44 983 q 79 1049 44 1049 l 297 1049 q 352 1040 336 1049 q 374 1017 368 1032 q 382 982 381 1003 q 393 936 383 961 l 642 283 q 667 263 650 263 q 689 283 682 263 l 900 921 q 907 958 906 936 q 913 999 908 979 q 928 1034 918 1019 q 963 1049 939 1049 l 1136 1049 q 1174 1040 1172 1049 q 1172 1007 1176 1031 q 1146 956 1167 974 q 1100 923 1125 938 q 1050 890 1075 908 q 1013 838 1025 872 z "},"W":{"ha":1632,"x_min":44,"x_max":1543,"o":"m 1424 835 l 1164 156 q 1153 136 1160 144 q 1149 113 1147 128 q 1181 65 1164 83 q 1199 6 1199 46 q 1172 -21 1199 -21 l 1000 -21 q 943 3 956 -14 q 915 44 931 21 l 824 268 q 808 286 815 289 q 799 272 803 283 l 753 154 q 742 135 749 143 q 738 111 736 126 q 770 63 753 82 q 788 4 788 44 q 761 -22 788 -22 l 589 -22 q 532 1 544 -17 q 504 43 519 19 l 183 822 q 135 905 160 881 q 90 942 110 929 q 57 967 69 954 q 44 1015 44 979 q 79 1044 44 1044 l 297 1044 q 352 1036 336 1044 q 374 1013 368 1028 q 382 978 381 999 q 393 932 383 957 l 642 279 q 667 258 650 258 q 689 279 682 258 l 743 415 q 747 439 747 425 q 744 456 747 447 q 738 475 742 464 l 594 824 q 546 906 571 882 q 501 943 521 931 q 468 968 481 956 q 456 1017 456 981 q 490 1046 456 1046 l 708 1046 q 763 1038 747 1046 q 785 1015 779 1029 q 793 979 792 1000 q 804 933 794 958 l 863 781 q 874 764 869 764 q 889 782 881 764 l 943 917 q 951 953 949 932 q 957 995 953 975 q 972 1030 961 1015 q 1006 1044 982 1044 l 1136 1044 q 1174 1035 1172 1044 q 1172 1003 1176 1026 q 1146 951 1167 969 q 1100 919 1125 933 q 1050 886 1075 904 q 1013 833 1025 868 l 938 636 q 932 610 932 624 q 936 588 932 597 l 1053 281 q 1078 260 1061 260 q 1100 281 1093 260 l 1343 921 q 1351 957 1349 936 q 1360 998 1354 978 q 1379 1032 1367 1018 q 1414 1046 1392 1046 l 1547 1046 q 1585 1037 1583 1046 q 1583 1004 1588 1028 q 1557 953 1578 971 q 1511 920 1536 935 q 1461 888 1486 906 q 1424 835 1436 869 z "},"X":{"ha":1144,"x_min":44,"x_max":1056,"o":"m 236 803 q 167 883 201 856 q 105 929 132 910 q 61 967 78 949 q 44 1022 44 986 q 79 1051 44 1051 l 297 1051 q 358 1043 336 1051 q 392 1020 379 1035 q 411 985 404 1006 q 428 939 418 964 l 557 728 q 574 715 565 715 q 589 728 581 715 l 693 893 q 716 935 708 917 q 724 983 724 953 q 774 1050 724 1050 l 921 1050 q 981 1006 981 1050 q 925 950 981 950 q 790 824 871 950 l 664 621 q 651 588 651 603 q 658 564 651 572 l 842 265 q 1028 72 963 72 q 1100 26 1100 72 q 1021 -31 1100 -31 l 811 -31 l 811 -28 l 788 -28 q 754 -14 767 -28 q 735 19 742 0 q 722 57 728 38 q 711 86 717 76 l 528 364 q 514 375 519 375 q 501 365 507 375 l 382 176 q 337 98 357 136 q 317 13 317 60 q 267 -32 317 -32 l 111 -32 q 46 15 46 -32 q 100 65 46 65 q 272 228 168 65 l 426 472 q 433 494 433 483 q 424 521 433 504 l 236 803 z "},"Y":{"ha":1074,"x_min":44,"x_max":985,"o":"m 236 803 q 167 883 201 856 q 105 929 132 910 q 61 967 78 949 q 44 1022 44 986 q 78 1050 44 1050 l 247 1050 q 326 1042 301 1050 q 360 1019 350 1033 q 375 984 371 1004 q 394 942 379 964 l 575 675 q 584 663 579 669 q 599 657 589 657 q 610 663 607 657 q 617 675 614 668 l 797 978 q 807 1001 804 989 q 815 1024 810 1014 q 828 1040 819 1033 q 856 1046 838 1046 l 971 1046 q 1029 1001 1029 1046 q 974 946 1029 946 q 907 914 947 946 q 826 818 867 882 l 675 572 q 668 544 669 561 q 667 519 667 526 l 667 151 q 669 118 667 131 q 673 94 671 106 q 677 71 675 83 q 679 39 679 58 q 626 -28 679 -17 l 389 -28 q 359 -24 372 -28 q 346 -3 346 -19 l 346 18 q 367 61 347 51 q 407 83 386 71 q 438 179 432 99 q 443 381 443 260 l 443 456 q 438 487 443 463 q 424 521 433 511 l 236 803 z "},"Z":{"ha":1121,"x_min":44,"x_max":1032,"o":"m 218 1047 l 1006 1047 q 1043 1006 1043 1047 q 1029 979 1038 989 q 1009 962 1021 969 q 985 947 997 954 q 958 926 972 939 l 444 176 q 413 110 413 128 q 451 89 413 89 l 675 89 q 958 188 894 89 q 1032 251 1001 251 q 1076 231 1074 251 q 1064 200 1076 219 q 1023 126 1042 167 q 983 52 1004 86 q 937 -5 963 18 q 875 -28 911 -28 l 104 -28 q 44 15 44 -28 q 57 57 44 46 q 90 76 69 68 q 135 99 110 85 q 185 150 160 114 l 694 901 q 706 926 706 919 q 672 943 706 943 l 485 943 q 260 913 342 943 q 149 831 178 882 q 122 808 139 811 q 89 806 106 806 q 51 826 51 806 q 60 850 51 835 l 149 1006 q 218 1047 174 1047 z "},"[":{"ha":294,"x_min":44,"x_max":206,"o":"m 250 1122 l 250 1063 l 121 1063 l 121 -1 l 250 -1 l 250 -64 l 44 -64 l 44 1122 l 250 1122 z "},"\\":{"ha":489,"x_min":44,"x_max":400,"o":"m 111 1067 l 44 1067 l 378 -7 l 444 -7 l 111 1067 z "},"]":{"ha":294,"x_min":44,"x_max":206,"o":"m 44 1119 l 44 1060 l 174 1060 l 174 -4 l 44 -4 l 44 -67 l 250 -67 l 250 1119 l 44 1119 z "},"_":{"ha":494,"x_min":44,"x_max":406,"o":"m 44 -51 l 450 -51 l 450 -104 l 44 -104 l 44 -51 z "},"‘":{"ha":249,"x_min":44,"x_max":160,"o":"m 44 1058 l 126 1058 q 175 961 158 997 q 198 905 192 925 q 202 878 204 885 q 194 872 200 872 q 178 878 188 872 q 151 905 168 885 q 109 961 135 925 q 44 1058 83 997 z "},"a":{"ha":729,"x_min":44,"x_max":640,"o":"m 582 372 l 582 333 q 580 277 582 300 q 575 235 578 254 q 570 199 572 217 q 568 158 568 181 q 589 88 568 101 q 642 75 610 75 q 674 67 664 75 q 685 50 685 60 q 652 3 685 18 q 561 -12 619 -12 q 485 1 511 -12 q 448 31 460 15 q 433 61 436 47 q 425 75 431 75 q 383 61 403 75 q 340 31 364 47 q 286 1 317 15 q 213 -12 256 -12 q 92 17 139 -12 q 44 129 44 46 q 61 197 44 167 q 106 250 78 226 q 172 292 135 274 q 249 326 208 310 q 307 349 276 338 q 363 374 338 360 q 406 408 389 389 q 422 456 422 428 q 388 547 422 524 q 296 569 354 569 q 226 546 244 569 q 199 494 207 522 q 181 443 190 467 q 136 419 171 419 q 82 447 96 419 q 68 510 68 475 q 89 571 68 544 q 147 615 110 597 q 232 640 183 632 q 335 649 281 649 q 449 638 401 649 q 525 597 496 628 q 568 513 554 567 q 582 372 582 458 m 422 196 l 422 258 q 418 286 422 269 q 396 303 414 303 q 358 292 386 303 q 299 260 329 281 q 247 208 269 239 q 224 136 224 176 q 240 106 224 115 q 279 97 256 97 q 326 105 301 97 q 373 126 351 113 q 408 157 394 139 q 422 196 422 175 z "},"b":{"ha":840,"x_min":44,"x_max":751,"o":"m 538 649 l 540 649 q 637 623 590 649 q 719 554 683 597 q 775 456 754 511 q 796 343 796 401 q 769 176 796 244 q 697 63 742 107 q 593 -2 651 18 q 471 -22 535 -22 q 385 -8 426 -22 q 310 29 344 6 q 260 -10 300 -1 l 83 -10 q 56 -7 67 -10 q 44 13 44 -4 l 44 33 q 51 59 44 50 q 67 74 58 68 q 87 85 76 79 q 106 99 97 90 q 131 160 126 121 q 136 243 136 200 l 136 804 q 134 860 136 836 q 122 893 132 883 q 93 913 111 906 q 74 950 75 921 q 85 979 74 965 q 111 993 97 993 q 142 1002 122 993 q 183 1023 161 1011 q 228 1044 206 1035 q 269 1054 251 1054 q 294 1047 285 1056 q 304 1014 304 1038 l 304 613 q 318 583 304 583 q 358 600 328 583 q 447 635 400 622 q 538 649 493 649 m 304 178 q 353 94 304 118 q 485 71 401 71 q 610 119 561 71 q 658 251 658 168 q 636 371 658 321 q 580 453 614 421 q 505 500 546 485 q 425 515 464 515 q 340 499 375 515 q 304 440 304 483 l 304 178 z "},"c":{"ha":663,"x_min":44,"x_max":574,"o":"m 356 561 q 297 553 326 561 q 245 525 268 544 q 208 472 222 506 q 193 386 193 438 q 213 286 193 335 q 265 199 233 238 q 335 138 296 161 q 413 115 374 115 q 488 123 461 115 q 529 140 514 131 q 554 158 544 150 q 578 165 564 165 q 604 162 594 165 q 614 129 614 158 q 592 83 614 108 q 538 35 571 57 q 462 -1 504 14 q 378 -15 419 -15 q 233 11 296 -15 q 129 83 171 38 q 66 189 88 128 q 44 319 44 250 q 66 451 44 389 q 131 559 88 513 q 240 633 175 606 q 394 660 306 660 q 558 614 497 660 q 618 499 618 568 q 606 473 618 483 q 549 463 593 463 q 503 478 517 463 q 476 512 490 493 q 436 546 461 531 q 356 561 411 561 z "},"d":{"ha":858,"x_min":44,"x_max":769,"o":"m 44 311 q 69 442 44 381 q 138 550 94 504 q 239 622 181 596 q 363 649 297 649 q 465 637 425 649 q 526 625 504 625 q 550 638 543 625 q 557 688 557 651 l 557 806 q 555 860 557 836 q 543 894 553 885 q 514 915 532 907 q 494 951 496 922 q 506 981 494 967 q 532 994 517 994 q 560 1002 543 994 q 599 1019 578 1010 q 640 1036 619 1028 q 679 1046 661 1044 q 705 1042 694 1046 q 715 1014 715 1038 l 715 122 q 731 97 715 104 q 764 84 746 90 q 797 68 782 78 q 813 33 813 58 q 809 5 813 17 q 778 -7 806 -7 l 638 -7 q 612 3 621 -7 q 598 24 603 13 q 590 44 593 35 q 579 54 586 54 q 546 42 561 54 q 508 15 531 31 q 453 -12 486 0 q 363 -24 419 -24 q 238 3 296 -24 q 138 74 181 29 q 69 181 94 119 q 44 311 44 242 m 363 551 q 234 501 272 551 q 196 351 196 450 q 214 257 196 301 q 263 178 232 213 q 333 124 293 144 q 418 104 374 104 q 509 128 467 104 q 551 192 551 153 l 551 425 q 533 472 551 449 q 487 512 515 494 q 425 540 458 529 q 363 551 392 551 z "},"e":{"ha":736,"x_min":44,"x_max":647,"o":"m 303 542 q 215 500 244 542 q 186 399 186 458 q 194 366 186 375 q 214 357 203 357 q 238 367 224 357 l 388 481 q 401 497 399 489 q 374 528 404 514 q 303 542 344 542 m 619 539 q 606 513 619 526 q 573 487 593 500 q 529 460 553 474 q 483 432 506 446 q 362 357 421 393 q 254 282 303 321 q 235 247 235 267 q 249 218 235 232 q 337 151 286 181 q 463 122 388 122 q 543 134 511 122 q 596 160 575 146 q 631 185 617 174 q 660 197 644 197 q 684 193 676 197 q 692 160 692 189 q 665 109 692 139 q 597 52 639 79 q 503 6 556 25 q 400 -14 451 -14 q 252 12 318 -14 q 140 83 186 38 q 69 189 94 128 q 44 319 44 250 q 67 451 44 389 q 133 559 89 513 q 242 633 176 606 q 394 660 307 660 q 467 649 428 660 q 540 622 507 639 q 597 583 574 606 q 619 539 619 561 z "},"f":{"ha":649,"x_min":44,"x_max":560,"o":"m 485 606 l 482 590 q 475 573 479 579 q 467 557 471 567 q 435 534 461 539 q 378 529 408 529 l 326 529 q 301 493 301 529 l 301 169 q 303 135 301 149 q 308 108 306 121 q 312 82 310 96 q 314 49 314 68 q 260 -18 314 -7 l 83 -18 q 56 -15 67 -18 q 44 4 44 -12 l 44 25 q 51 51 44 42 q 67 65 58 60 q 87 76 76 71 q 106 90 97 82 q 130 160 126 113 q 133 251 133 208 l 133 514 q 119 529 133 529 q 94 535 103 529 q 85 560 85 542 q 95 576 85 567 q 121 596 106 586 q 132 610 131 603 q 133 628 133 618 l 133 660 q 156 841 133 765 q 217 965 178 917 q 310 1037 257 1014 q 424 1060 363 1060 q 508 1050 474 1060 q 565 1026 543 1040 q 595 994 586 1011 q 604 960 604 976 q 588 901 604 928 q 538 874 571 874 q 503 889 518 874 q 474 923 489 904 q 441 957 460 942 q 393 972 422 972 q 328 928 356 972 q 301 783 301 883 l 301 658 q 326 628 301 628 l 385 628 q 460 625 436 628 q 485 606 483 622 z "},"g":{"ha":861,"x_min":44,"x_max":772,"o":"m 67 63 l 68 65 q 95 83 68 72 q 154 107 122 94 q 211 131 186 119 q 232 149 236 142 q 222 153 231 150 q 197 163 213 156 q 101 256 129 196 q 72 386 72 317 q 156 577 72 503 q 388 651 240 651 q 519 642 472 651 q 592 622 565 633 q 632 601 618 610 q 667 592 646 592 q 719 610 697 592 q 765 629 742 629 q 808 615 800 629 q 817 571 817 600 l 817 551 q 808 515 817 525 q 788 506 799 506 q 760 512 774 506 q 740 518 746 518 q 722 493 722 518 q 732 442 722 472 q 742 386 742 413 q 693 253 742 314 q 565 157 644 192 q 506 138 540 146 q 438 122 471 129 q 383 106 406 114 q 361 88 361 97 q 376 73 361 81 q 411 58 390 65 q 457 42 432 50 q 503 28 482 35 q 618 -17 561 7 q 719 -71 675 -40 q 790 -142 763 -101 q 817 -236 817 -182 q 783 -331 817 -290 q 696 -397 750 -371 q 572 -435 642 -422 q 431 -447 503 -447 q 288 -429 357 -447 q 164 -378 218 -411 q 77 -300 110 -346 q 44 -200 44 -254 q 79 -91 44 -125 q 186 -42 114 -57 q 176 -33 193 -40 q 136 -13 160 -26 q 91 19 113 0 q 67 63 69 38 m 408 565 l 407 565 q 287 519 326 565 q 247 403 247 472 q 259 333 247 368 q 294 272 271 299 q 349 227 317 244 q 421 210 381 210 q 542 263 501 210 q 582 386 582 317 q 570 453 582 421 q 535 511 558 486 q 481 551 513 536 q 408 565 449 565 m 668 -260 q 614 -186 661 -217 q 506 -135 567 -156 q 384 -102 446 -115 q 288 -78 322 -89 q 272 -75 276 -75 q 234 -97 250 -75 q 218 -160 218 -119 q 238 -233 218 -194 q 290 -302 258 -271 q 362 -353 322 -333 q 442 -374 401 -374 q 522 -369 482 -374 q 595 -351 563 -364 q 648 -317 628 -339 q 668 -260 668 -294 z "},"h":{"ha":858,"x_min":44,"x_max":769,"o":"m 517 646 l 514 646 q 679 595 619 646 q 739 443 739 544 l 739 114 q 751 90 739 96 q 776 81 763 85 q 802 68 790 76 q 814 35 814 60 q 808 2 814 18 q 774 -14 801 -14 l 631 -14 q 583 13 593 -14 q 572 79 572 39 q 581 153 572 118 q 590 236 590 189 l 590 396 q 546 493 590 463 q 454 524 501 524 q 349 494 393 524 q 304 428 304 464 l 304 165 q 306 132 304 144 q 309 108 307 119 q 313 85 311 97 q 314 53 314 72 q 260 -14 314 -3 l 83 -14 q 56 -11 67 -14 q 44 8 44 -8 l 44 29 q 51 55 44 46 q 67 69 58 64 q 87 81 76 75 q 106 94 97 86 q 131 156 126 117 q 136 239 136 196 l 136 800 q 134 855 136 831 q 122 889 132 879 q 93 909 111 901 q 74 946 75 917 q 85 975 74 961 q 111 989 97 989 q 142 998 122 989 q 183 1019 161 1007 q 228 1040 206 1031 q 269 1050 251 1050 q 294 1042 285 1051 q 304 1010 304 1033 l 304 597 q 315 578 304 578 q 356 588 340 578 q 391 612 372 599 q 438 635 410 625 q 517 646 467 646 z "},"i":{"ha":350,"x_min":44,"x_max":261,"o":"m 133 419 q 133 432 133 422 q 131 453 132 442 q 126 473 129 464 q 119 483 124 482 q 82 499 104 488 q 58 540 60 511 q 78 569 58 556 q 113 583 97 583 q 142 592 124 583 q 181 613 160 601 q 222 635 201 625 q 261 644 243 644 q 297 600 297 647 l 297 179 q 299 146 297 158 q 301 122 300 133 q 303 99 301 111 q 304 67 304 86 q 250 0 304 11 l 83 0 q 56 3 67 0 q 44 22 44 6 l 44 43 q 51 69 44 60 q 67 83 58 78 q 87 94 76 89 q 106 108 97 100 q 130 170 126 131 q 133 253 133 210 l 133 419 m 239 889 q 291 878 276 889 q 306 831 306 867 q 294 792 306 813 q 267 756 283 772 q 229 728 250 739 q 190 717 208 717 q 136 732 153 717 q 119 783 119 747 q 131 820 119 801 q 160 854 143 839 q 199 879 178 869 q 239 889 219 889 z "},"j":{"ha":364,"x_min":-53,"x_max":346,"o":"m 121 421 q 120 433 121 424 q 118 454 119 443 q 114 474 117 465 q 107 485 111 483 q 69 501 92 489 q 46 542 47 513 q 66 571 46 557 q 100 585 86 585 q 129 594 111 585 q 168 615 147 603 q 210 636 189 626 q 249 646 231 646 q 285 601 285 649 l 285 -14 q 267 -159 285 -89 q 212 -282 249 -229 q 119 -367 175 -335 q -12 -399 63 -399 q -43 -385 -35 -399 q -53 -357 -51 -371 q -39 -335 -53 -339 q 78 -264 36 -317 q 121 -125 121 -211 l 121 421 m 226 890 q 278 879 264 890 q 293 832 293 868 q 282 794 293 814 q 254 757 271 774 q 217 729 238 740 q 178 718 197 718 q 124 733 140 718 q 107 785 107 749 q 119 822 107 803 q 148 856 131 840 q 187 881 165 871 q 226 890 208 890 z "},"k":{"ha":815,"x_min":44,"x_max":726,"o":"m 304 265 l 304 168 q 306 135 304 147 q 309 111 307 122 q 313 88 311 100 q 314 56 314 75 q 260 -11 314 0 l 83 -11 q 56 -8 67 -11 q 44 11 44 -6 l 44 32 q 51 58 44 49 q 67 72 58 67 q 87 83 76 78 q 106 97 97 89 q 131 159 126 119 q 136 242 136 199 l 136 803 q 134 858 136 833 q 122 892 132 882 q 93 912 111 904 q 74 949 75 919 q 85 978 74 964 q 111 992 97 992 q 142 1001 122 992 q 183 1022 161 1010 q 228 1043 206 1033 q 269 1053 251 1053 q 294 1045 285 1054 q 304 1013 304 1036 l 304 424 q 313 413 304 413 q 328 424 319 413 q 465 595 400 531 q 594 660 531 660 q 681 642 639 660 q 722 596 722 624 q 700 539 722 567 q 649 511 678 511 q 622 515 636 511 q 594 522 608 519 q 550 520 575 526 q 503 501 525 514 q 465 470 481 488 q 450 435 450 453 q 467 393 450 424 q 510 322 483 363 q 570 238 538 282 q 634 157 603 194 q 693 96 665 119 q 736 72 721 72 q 760 67 750 72 q 771 32 771 63 q 747 -8 769 -4 q 707 -11 725 -11 l 594 -11 q 533 35 569 -11 q 458 139 496 82 q 389 245 421 196 q 340 300 357 294 q 315 296 325 306 q 304 265 304 286 z "},"l":{"ha":358,"x_min":44,"x_max":269,"o":"m 136 353 l 136 693 l 136 800 q 134 855 136 831 q 122 889 132 879 q 93 909 111 901 q 74 946 75 917 q 85 975 74 961 q 111 989 97 989 q 142 998 122 989 q 183 1019 161 1007 q 228 1040 206 1031 q 269 1050 251 1050 q 294 1042 285 1051 q 304 1010 304 1033 l 304 165 q 306 132 304 144 q 309 108 307 119 q 313 85 311 97 q 314 53 314 72 q 260 -14 314 -3 l 83 -14 q 56 -11 67 -14 q 44 8 44 -8 l 44 29 q 51 55 44 46 q 67 69 58 64 q 87 81 76 75 q 106 94 97 86 q 131 156 126 117 q 136 239 136 196 l 136 353 z "},"m":{"ha":1199,"x_min":44,"x_max":1110,"o":"m 106 164 l 106 486 q 96 503 106 496 q 75 519 86 511 q 54 535 64 526 q 44 560 44 544 q 56 589 44 575 q 82 603 67 603 q 113 612 93 603 q 154 633 132 621 q 199 654 176 644 q 240 664 222 664 q 265 656 256 665 q 275 624 275 647 l 275 597 q 285 578 275 578 q 326 588 310 578 q 360 612 342 599 q 407 635 379 625 q 483 646 435 646 q 571 634 535 646 q 631 600 607 622 q 649 585 642 590 q 663 579 656 579 q 698 590 682 579 q 734 612 714 600 q 783 634 754 624 q 854 644 811 644 q 1020 594 961 644 q 1079 442 1079 543 l 1079 113 q 1091 89 1079 94 q 1117 79 1103 83 q 1142 67 1131 75 q 1154 33 1154 58 q 1148 1 1154 17 q 1114 -15 1142 -15 l 971 -15 q 937 -1 944 -15 q 929 38 929 14 q 930 56 929 46 q 931 76 931 67 l 931 235 l 931 394 q 886 492 931 461 q 794 522 842 522 q 676 483 722 522 q 678 463 678 474 q 678 443 678 453 l 678 114 q 690 90 678 96 q 715 81 701 85 q 741 68 729 76 q 753 35 753 60 q 747 2 753 18 q 713 -14 740 -14 l 569 -14 q 527 17 532 -14 q 522 86 522 47 q 526 157 522 125 q 529 236 529 189 l 529 396 q 491 498 529 463 q 406 533 453 533 q 309 499 344 533 q 274 428 274 464 l 274 165 q 275 132 274 144 q 278 108 276 119 q 282 85 281 97 q 283 53 283 72 q 229 -14 283 -3 l 83 -14 q 57 -11 67 -14 q 47 8 47 -8 l 47 29 q 56 64 47 53 q 76 87 65 75 q 97 115 88 99 q 106 164 106 131 z "},"n":{"ha":828,"x_min":44,"x_max":739,"o":"m 106 163 l 106 485 q 96 502 106 494 q 75 517 86 510 q 54 535 64 525 q 44 558 44 544 q 56 588 44 574 q 82 601 67 601 q 113 610 93 601 q 154 631 132 619 q 199 653 176 643 q 240 663 222 663 q 265 655 256 664 q 275 622 275 646 l 275 596 q 285 576 275 576 q 326 587 310 576 q 360 610 342 597 q 407 634 379 624 q 483 644 435 644 q 649 594 589 644 q 708 442 708 543 l 708 113 q 720 89 708 94 q 746 79 732 83 q 772 67 760 75 q 783 33 783 58 q 777 1 783 17 q 743 -15 771 -15 l 600 -15 q 552 12 563 -15 q 542 78 542 39 q 551 151 542 117 q 560 235 560 186 l 560 394 q 515 492 560 461 q 424 522 471 522 q 318 492 363 522 q 274 426 274 463 l 274 164 q 275 131 274 143 q 278 107 276 118 q 282 83 281 96 q 283 51 283 71 q 229 -15 283 -4 l 83 -15 q 57 -12 67 -15 q 47 7 47 -10 l 47 28 q 56 62 47 50 q 76 85 65 74 q 97 113 88 97 q 106 163 106 129 z "},"o":{"ha":806,"x_min":44,"x_max":717,"o":"m 383 657 l 385 657 q 526 630 458 657 q 647 557 594 603 q 730 449 699 511 q 761 315 761 386 q 738 181 761 244 q 673 69 715 117 q 571 -6 631 22 q 438 -35 511 -35 q 268 -9 342 -35 q 144 61 194 17 q 69 167 94 106 q 44 299 44 228 q 69 434 44 369 q 140 549 94 499 q 247 628 185 599 q 383 657 310 657 m 331 558 q 231 512 268 558 q 193 382 193 465 q 222 242 193 300 q 294 148 251 185 q 387 94 338 111 q 478 76 436 76 q 576 122 539 76 q 613 267 613 168 q 592 368 613 317 q 535 462 572 419 q 447 531 499 504 q 331 558 394 558 z "},"p":{"ha":833,"x_min":0,"x_max":775,"o":"m 490 643 l 500 643 q 622 618 569 643 q 708 549 674 593 q 758 447 742 506 q 775 322 775 389 q 755 197 775 256 q 693 94 735 139 q 588 25 651 50 q 439 0 525 0 q 357 15 399 0 q 286 29 315 29 q 267 22 274 29 q 260 -7 260 14 l 260 -221 q 261 -254 260 -242 q 265 -278 263 -267 q 268 -301 267 -289 q 269 -333 269 -314 q 215 -400 269 -389 l 39 -400 q 11 -397 22 -400 q 0 -378 0 -394 l 0 -357 q 7 -331 0 -340 q 23 -317 14 -322 q 42 -306 32 -311 q 61 -292 53 -300 q 87 -230 82 -269 q 92 -147 92 -190 l 92 414 q 90 469 92 444 q 78 503 88 493 q 49 523 67 515 q 29 560 31 531 q 41 589 29 575 q 67 603 53 603 q 97 612 78 603 q 139 633 117 621 q 184 654 161 644 q 225 664 207 664 q 250 656 240 665 q 260 624 260 647 l 260 572 q 371 624 311 606 q 490 643 431 643 m 610 279 q 597 377 610 331 q 560 458 583 424 q 504 513 536 493 q 435 533 472 533 q 377 526 408 533 q 319 506 346 519 q 275 472 293 492 q 257 425 257 451 l 257 210 q 272 167 257 190 q 314 123 288 143 q 374 89 340 103 q 446 75 408 75 q 567 126 524 75 q 610 279 610 176 z "},"q":{"ha":821,"x_min":44,"x_max":732,"o":"m 553 -178 l 553 -18 l 554 -18 l 554 18 q 539 44 554 44 q 510 37 528 46 q 474 24 492 28 q 325 -7 400 -7 q 203 17 256 -7 q 115 84 150 42 q 62 184 79 126 q 44 308 44 242 q 76 459 44 394 q 160 566 108 524 q 280 630 213 608 q 418 651 347 651 q 483 644 456 651 q 531 627 510 636 q 573 610 553 618 q 615 603 593 603 q 671 619 642 603 q 722 636 700 635 q 734 630 732 636 q 736 615 736 624 q 731 510 736 569 q 719 384 725 450 q 707 249 713 318 q 701 117 701 181 l 701 -296 q 713 -320 701 -314 q 739 -331 725 -326 q 765 -345 753 -336 q 776 -379 776 -354 q 770 -412 776 -396 q 736 -428 764 -428 l 593 -428 q 545 -401 556 -428 q 535 -335 535 -375 q 544 -260 535 -296 q 553 -178 553 -225 m 411 561 l 408 561 q 231 498 282 561 q 179 332 179 435 q 199 237 179 281 q 251 160 219 193 q 324 110 283 128 q 404 92 364 92 q 508 122 467 92 q 550 189 550 151 l 550 443 q 506 529 550 497 q 411 561 461 561 z "},"r":{"ha":657,"x_min":44,"x_max":568,"o":"m 185 393 l 186 393 q 177 463 185 447 q 158 499 169 479 q 130 519 149 517 q 92 522 111 521 q 59 528 74 522 q 44 563 44 535 q 51 588 44 579 q 69 601 58 596 q 92 609 79 606 q 119 621 106 613 q 159 649 143 635 q 210 663 175 663 q 247 644 231 663 q 278 605 264 626 q 303 565 292 583 q 325 547 315 547 q 356 569 343 547 q 392 610 369 592 q 518 663 456 663 q 586 635 560 663 q 613 572 613 607 q 592 544 613 553 q 554 524 572 535 q 533 506 539 514 q 500 499 528 499 q 469 503 481 499 q 450 511 458 507 q 433 519 442 515 q 413 524 425 524 q 381 507 396 524 q 356 465 367 490 q 340 410 346 439 q 333 356 333 381 l 333 111 q 345 88 333 93 q 371 78 357 82 q 397 65 385 74 q 408 32 408 57 q 402 -1 408 15 q 368 -17 396 -17 l 225 -17 q 177 10 188 -17 q 167 76 167 36 q 176 151 167 115 q 185 233 185 186 l 185 393 z "},"s":{"ha":572,"x_min":44,"x_max":483,"o":"m 528 222 q 456 49 528 108 q 263 -10 383 -10 q 105 17 165 -10 q 44 113 44 44 q 99 167 44 167 q 144 153 126 167 q 181 124 163 140 q 224 95 200 108 q 289 82 249 82 q 363 103 335 82 q 390 169 390 125 q 367 230 390 207 q 307 269 343 253 q 230 300 271 286 q 153 335 189 314 q 93 389 117 357 q 69 472 69 421 q 89 567 69 528 q 142 632 108 607 q 218 668 175 657 q 310 679 261 679 q 431 649 379 679 q 501 565 482 618 q 424 503 482 517 q 388 526 403 511 q 357 554 372 540 q 322 578 342 568 q 272 588 303 588 q 214 573 235 588 q 193 517 193 558 q 211 485 193 501 q 258 453 229 468 q 322 425 286 438 q 390 404 357 413 q 492 335 457 388 q 528 222 528 283 z "},"t":{"ha":486,"x_min":44,"x_max":397,"o":"m 75 542 q 54 551 63 542 q 44 572 46 560 l 44 586 q 53 613 44 601 q 72 632 61 624 q 96 647 83 640 q 118 660 108 653 q 147 696 139 674 q 163 739 156 718 q 181 775 169 760 q 218 790 193 790 l 281 790 q 297 776 297 790 q 288 740 297 763 q 281 690 279 717 q 290 657 281 672 q 321 642 299 642 l 422 642 q 442 621 442 642 q 424 574 442 600 q 388 542 407 547 l 314 542 q 285 526 289 542 q 281 489 281 510 l 281 247 q 283 202 281 226 q 290 157 285 178 q 302 123 294 136 q 322 110 310 110 l 365 110 q 394 102 383 110 q 406 75 406 94 q 387 41 406 56 q 340 16 368 26 q 278 1 311 6 q 214 -4 244 -4 q 166 13 183 -4 q 141 53 149 31 q 132 99 133 76 q 131 135 131 122 q 131 221 131 190 q 131 283 131 251 q 132 361 132 315 q 132 492 132 407 q 106 542 132 542 l 75 542 z "},"u":{"ha":840,"x_min":44,"x_max":751,"o":"m 275 631 l 275 196 q 283 121 275 143 q 339 99 292 99 q 410 106 375 99 q 474 129 446 114 q 520 169 503 144 q 538 225 538 193 l 538 611 q 563 644 538 644 l 732 644 q 773 638 750 644 q 794 594 796 632 q 779 576 794 582 q 746 561 764 569 q 713 539 728 553 q 697 496 697 525 l 697 168 q 710 126 697 139 q 740 107 724 114 q 770 92 757 100 q 783 67 783 85 q 763 35 783 47 q 713 11 743 22 q 668 -5 692 4 q 615 -14 644 -14 q 567 0 583 -14 q 542 31 551 14 q 528 61 533 47 q 511 75 522 75 q 487 61 503 75 q 444 31 471 47 q 379 0 417 14 q 289 -14 342 -14 q 191 -1 228 -14 q 135 39 154 13 q 111 105 117 65 q 106 196 106 144 l 106 413 q 104 469 106 444 q 93 503 103 493 q 64 523 82 515 q 44 560 46 531 q 56 589 44 575 q 82 603 67 603 q 113 612 93 603 q 154 633 132 621 q 199 654 176 644 q 240 664 222 664 q 265 660 256 665 q 275 631 275 654 z "},"v":{"ha":743,"x_min":44,"x_max":654,"o":"m 415 200 q 436 218 424 200 l 564 536 q 553 563 564 553 q 531 579 543 572 q 508 594 518 586 q 499 614 499 601 q 515 633 499 633 l 678 633 q 695 628 692 633 q 699 607 699 624 l 699 594 q 695 574 699 579 q 688 564 692 568 q 661 528 676 553 q 632 469 646 503 l 503 146 q 485 105 493 122 q 478 76 478 88 q 485 57 478 60 q 502 52 493 54 q 519 44 511 50 q 526 14 526 38 q 524 -3 526 8 q 515 -14 522 -14 l 363 -14 q 342 13 353 -14 l 121 485 q 98 514 111 506 q 73 527 85 522 q 53 538 61 532 q 44 558 44 543 q 67 583 44 567 q 119 615 90 599 q 174 644 149 632 q 206 657 200 657 q 231 651 224 657 q 240 633 238 644 q 245 606 243 622 q 256 569 247 590 l 401 217 q 415 200 408 200 z "},"w":{"ha":1175,"x_min":44,"x_max":1086,"o":"m 458 189 q 469 194 463 189 q 479 210 476 199 l 551 439 q 558 467 558 457 q 553 489 558 478 q 526 518 543 510 q 493 533 510 526 q 465 553 476 540 q 453 594 453 565 q 480 614 453 603 q 540 635 507 625 q 603 653 574 646 q 638 661 632 661 q 663 655 656 661 q 672 638 669 649 q 677 610 675 626 q 688 574 679 594 l 833 221 q 847 204 839 204 q 868 222 856 204 l 996 540 q 985 567 996 557 q 963 583 975 576 q 940 598 950 590 q 931 618 931 606 q 947 638 931 638 l 1110 638 q 1127 633 1124 638 q 1131 611 1131 628 l 1131 599 q 1107 547 1131 572 q 1064 474 1083 522 l 935 150 q 917 109 925 126 q 910 81 910 92 q 917 61 910 64 q 934 56 925 58 q 951 48 943 54 q 958 18 958 42 q 956 1 958 13 q 947 -10 953 -10 l 794 -10 q 774 17 785 -10 l 649 285 q 615 322 631 322 q 590 285 600 322 l 551 149 q 538 81 538 101 q 544 60 538 64 q 558 53 550 56 q 572 43 565 50 q 578 13 578 36 q 571 -3 578 7 q 557 -12 564 -12 l 390 -12 q 369 14 381 -12 l 149 486 q 122 512 139 507 q 87 519 104 517 q 57 531 69 522 q 44 569 44 540 q 72 592 44 578 q 134 622 100 607 q 198 647 168 636 q 233 658 228 658 q 258 652 251 658 q 268 635 265 646 q 273 608 271 624 q 283 571 275 592 l 438 218 q 445 199 442 208 q 458 189 449 189 z "},"x":{"ha":806,"x_min":44,"x_max":717,"o":"m 518 649 l 708 649 q 728 645 721 649 q 736 626 736 642 q 714 586 736 608 l 513 390 q 497 370 503 381 q 492 354 492 360 q 513 295 492 340 q 565 202 535 250 q 628 117 596 154 q 683 79 661 79 q 716 85 700 79 q 743 92 732 92 q 756 85 751 92 q 761 60 761 78 q 715 3 761 25 q 614 -19 669 -19 q 522 20 560 -19 q 458 107 485 60 q 411 193 431 154 q 376 231 392 232 q 349 213 367 231 l 256 110 q 245 93 249 103 q 242 81 242 83 q 262 42 242 64 q 282 7 282 21 q 251 -7 282 -7 l 71 -7 q 53 1 63 -7 q 44 18 44 8 q 49 33 44 24 q 65 53 53 42 l 310 293 q 331 329 331 314 q 314 372 331 338 q 268 443 297 406 q 199 510 239 481 q 114 539 160 539 q 81 542 92 539 q 71 558 71 544 q 78 585 71 576 q 97 600 86 594 q 121 609 108 606 q 143 619 133 613 q 176 647 168 635 q 206 660 185 658 l 231 660 q 301 627 268 660 q 360 555 333 594 q 409 483 388 515 q 444 450 431 450 q 461 461 453 450 l 531 538 q 538 551 536 543 q 540 561 540 558 q 534 582 540 575 q 521 595 528 589 q 508 608 514 601 q 501 629 501 615 q 518 649 501 649 z "},"y":{"ha":836,"x_min":44,"x_max":747,"o":"m 272 546 l 465 210 q 486 190 478 189 q 501 208 493 192 l 619 496 q 621 507 621 500 q 601 551 619 526 q 582 599 582 575 q 610 633 582 633 l 768 633 q 792 601 792 633 q 781 572 792 588 q 757 538 771 556 q 729 502 743 521 q 707 465 715 483 l 386 -310 q 320 -397 364 -362 q 225 -432 276 -432 q 185 -429 206 -432 q 149 -418 165 -426 q 122 -396 132 -410 q 111 -360 111 -382 q 125 -342 111 -350 q 150 -321 139 -333 q 168 -297 161 -310 q 186 -283 175 -283 q 222 -293 207 -283 q 251 -303 236 -303 q 284 -292 267 -303 q 310 -260 301 -281 l 399 -42 q 404 -18 404 -31 q 396 10 404 -6 l 138 458 q 110 487 126 479 q 80 499 94 494 q 55 510 65 504 q 44 531 44 515 q 67 559 44 539 q 117 601 89 579 q 171 640 146 624 q 201 657 196 657 q 228 647 219 657 q 244 622 238 638 q 256 585 250 606 q 272 546 261 565 z "},"z":{"ha":749,"x_min":44,"x_max":660,"o":"m 304 118 q 299 107 299 110 q 306 97 299 100 q 321 93 314 93 l 483 93 q 557 109 528 93 q 607 143 586 125 q 643 177 628 161 q 675 193 658 193 q 701 179 694 193 q 700 143 707 165 q 681 99 693 121 q 654 54 668 78 q 625 14 643 33 q 588 -6 607 -6 l 101 -6 q 64 -1 83 -6 q 44 26 44 4 q 58 61 44 51 q 82 82 72 71 l 465 526 q 475 546 475 536 q 457 560 475 560 l 318 560 q 261 544 288 560 q 210 512 235 529 q 160 479 185 494 q 110 464 136 464 q 90 472 97 464 q 82 488 83 479 q 94 522 82 503 q 115 564 106 540 q 140 622 129 594 q 165 649 151 649 l 228 647 q 299 646 247 647 q 408 642 350 644 q 518 639 465 640 q 594 638 571 638 l 675 638 q 699 622 699 638 l 699 606 q 672 557 699 588 l 304 118 z "},"{":{"ha":419,"x_min":44,"x_max":331,"o":"m 321 1122 l 363 1097 q 283 907 318 1028 q 240 617 247 786 q 227 597 240 607 q 199 576 214 586 q 172 555 185 565 q 160 533 160 544 q 172 506 160 519 q 200 478 185 492 q 228 451 215 464 q 242 426 242 439 q 260 240 246 318 q 292 108 274 163 q 333 15 311 53 q 375 -49 354 -22 l 321 -64 q 256 17 286 -28 q 201 119 225 61 q 163 254 178 178 q 142 428 147 331 q 126 453 142 440 q 93 478 111 465 q 60 506 75 492 q 44 533 44 519 q 60 555 44 544 q 93 576 75 565 q 126 597 111 586 q 142 617 142 607 q 210 924 154 796 q 321 1122 265 1051 z "},"|":{"ha":185,"x_min":44,"x_max":96,"o":"m 44 1029 l 140 1029 l 140 35 l 44 35 l 44 1029 z "},"}":{"ha":419,"x_min":44,"x_max":331,"o":"m 99 1122 l 57 1097 q 137 907 101 1028 q 179 617 172 786 q 192 597 179 607 q 220 576 206 586 q 247 555 235 565 q 260 533 260 544 q 247 506 260 519 q 219 478 235 492 q 191 451 204 464 q 178 426 178 439 q 160 240 174 318 q 127 108 146 163 q 87 15 108 53 q 44 -49 65 -22 l 99 -64 q 164 17 133 -28 q 218 119 194 61 q 257 254 242 178 q 278 428 272 331 q 293 453 278 440 q 326 478 308 465 q 360 506 344 492 q 375 533 375 519 q 360 555 375 544 q 326 576 344 565 q 293 597 308 586 q 278 617 278 607 q 210 924 265 796 q 99 1122 154 1051 z "},"~":{"ha":500,"x_min":44,"x_max":411,"o":"m 44 872 l 44 946 q 99 1028 64 994 q 181 1063 133 1063 q 223 1047 206 1063 q 255 1013 240 1031 q 285 978 269 994 q 322 963 301 963 q 392 991 361 963 q 456 1063 422 1019 l 456 983 q 399 900 435 928 q 322 872 363 872 q 283 890 301 872 q 249 928 265 907 q 216 966 232 949 q 181 983 200 983 q 108 952 144 986 q 44 872 71 918 z "},"`":{"ha":282,"x_min":44,"x_max":193,"o":"m 144 1058 q 65 1015 86 1058 q 46 919 44 972 q 55 863 47 892 q 74 809 63 833 q 98 769 85 785 q 122 753 111 753 q 153 765 151 753 q 147 795 156 776 q 127 838 139 814 q 117 885 115 861 q 144 881 129 881 q 210 907 183 881 q 238 969 238 933 q 210 1032 238 1006 q 144 1058 183 1058 z "},"´":{"ha":282,"x_min":44,"x_max":193,"o":"m 138 1057 q 217 1014 196 1057 q 236 918 239 971 q 227 861 235 890 q 208 808 219 832 q 184 767 197 783 q 160 751 171 751 q 128 763 131 751 q 135 794 126 775 q 155 836 143 813 q 165 883 167 860 q 138 879 153 879 q 72 906 99 879 q 44 968 44 932 q 72 1031 44 1004 q 138 1057 99 1057 z "},"ˆ":{"ha":488,"x_min":44,"x_max":399,"o":"m 144 1058 q 65 1015 86 1058 q 46 919 44 972 q 55 863 47 892 q 74 809 63 833 q 98 769 85 785 q 122 753 111 753 q 153 765 151 753 q 147 795 156 776 q 127 838 139 814 q 117 885 115 861 q 144 881 129 881 q 210 907 183 881 q 238 969 238 933 q 210 1032 238 1006 q 144 1058 183 1058 m 350 1061 q 271 1018 292 1061 q 251 922 250 975 q 260 865 253 894 q 279 812 268 836 q 303 772 290 788 q 328 756 317 756 q 359 767 357 756 q 353 798 361 779 q 333 840 344 817 q 322 888 321 864 q 350 883 335 883 q 416 910 389 883 q 443 972 443 936 q 416 1035 443 1008 q 350 1061 389 1061 z "},"˜":{"ha":492,"x_min":44,"x_max":403,"o":"m 138 1056 q 217 1013 196 1056 q 236 917 239 969 q 227 860 235 889 q 208 806 219 831 q 184 766 197 782 q 160 750 171 750 q 128 762 131 750 q 135 792 126 774 q 155 835 143 811 q 165 882 167 858 q 138 878 153 878 q 72 904 99 878 q 44 967 44 931 q 72 1029 44 1003 q 138 1056 99 1056 m 347 1060 q 426 1017 406 1060 q 446 921 447 974 q 437 864 444 893 q 418 810 429 835 q 394 770 407 786 q 369 754 381 754 q 338 766 340 754 q 344 797 336 778 q 365 839 353 815 q 375 886 376 863 q 347 882 363 882 q 281 908 308 882 q 254 971 254 935 q 281 1033 254 1007 q 347 1060 308 1060 z "},"£":{"ha":604,"x_min":44,"x_max":515,"o":"m 379 1060 q 464 1050 429 1060 q 520 1026 499 1040 q 551 994 542 1011 q 560 960 560 976 q 543 901 560 928 q 493 874 526 874 q 460 889 474 874 q 432 923 446 904 q 400 957 418 942 q 353 972 382 972 q 290 941 317 972 q 251 863 264 910 q 238 764 238 817 q 257 667 239 711 q 290 633 268 638 q 331 628 313 628 l 388 628 q 461 626 439 628 q 483 608 483 625 l 478 592 q 470 574 475 581 q 461 556 465 567 q 431 533 456 538 q 374 529 406 529 l 311 529 q 288 523 299 529 q 276 499 276 517 q 267 309 276 406 q 257 119 257 213 q 303 91 257 99 q 406 79 350 83 q 509 68 463 75 q 556 42 556 61 q 551 -5 556 14 q 521 -18 547 -24 q 306 8 410 6 q 111 -17 203 11 q 70 -12 96 -22 q 44 13 44 -3 l 44 33 q 46 57 44 50 q 49 67 47 64 q 53 75 50 71 q 61 90 57 79 q 117 306 107 208 q 111 489 126 403 q 109 513 108 500 q 89 526 110 526 q 59 538 71 526 q 47 568 47 550 q 74 606 47 590 q 89 612 83 611 q 92 629 94 613 q 81 730 86 679 q 78 832 75 781 q 110 944 82 900 q 182 1013 139 988 q 277 1049 225 1039 q 379 1060 329 1060 z "},"Ä":{"ha":1297,"x_min":44,"x_max":1208,"o":"m 1108 185 q 1151 112 1132 131 q 1185 87 1169 93 q 1215 76 1201 81 q 1243 49 1229 72 q 1253 19 1253 31 q 1228 -6 1253 -3 q 1186 -8 1204 -8 l 1024 -8 q 966 9 989 -8 q 924 58 943 26 q 889 133 906 89 q 850 231 872 178 l 828 283 q 800 301 822 296 q 747 307 778 307 l 454 307 q 390 302 418 307 q 356 282 361 297 q 325 190 336 228 q 307 124 314 151 q 297 78 300 97 q 292 44 293 60 q 256 2 289 11 q 146 -7 222 -7 q 44 36 44 -7 q 72 86 44 72 q 121 100 99 100 q 159 124 142 100 q 194 192 176 147 l 488 906 q 494 926 492 917 q 497 944 497 935 q 484 970 497 963 q 454 986 471 978 q 424 1008 438 994 q 411 1050 411 1022 q 426 1058 411 1056 q 465 1061 442 1061 q 531 1059 497 1061 q 583 1057 565 1057 q 628 1060 606 1057 q 672 1063 651 1063 q 724 1051 700 1063 q 767 996 749 1039 q 786 935 781 963 q 803 885 792 908 l 1108 185 m 576 824 l 425 453 q 421 433 421 440 q 436 422 421 422 l 749 422 q 763 433 763 422 q 758 447 763 439 l 601 824 q 589 836 597 836 q 576 824 581 836 m 442 1215 q 485 1199 467 1215 q 504 1160 504 1183 q 485 1121 504 1136 q 442 1106 467 1106 q 399 1121 417 1106 q 381 1160 381 1136 q 399 1199 381 1183 q 442 1215 417 1215 m 739 1213 q 783 1197 764 1213 q 801 1157 801 1181 q 783 1118 801 1133 q 739 1103 764 1103 q 696 1118 714 1103 q 678 1157 678 1133 q 696 1197 678 1181 q 739 1213 714 1213 z "},"Ë":{"ha":1150,"x_min":44,"x_max":1061,"o":"m 143 289 l 143 824 q 94 960 143 911 q 70 978 83 972 q 56 1014 57 985 q 61 1040 56 1029 q 82 1051 67 1051 l 929 1051 q 989 1033 989 1051 q 982 1018 989 1028 l 903 917 q 882 885 892 903 q 854 867 872 867 q 819 876 838 867 q 786 899 801 886 q 695 940 758 921 q 538 960 632 960 q 454 958 492 960 q 399 950 417 956 q 376 936 383 946 q 366 915 368 926 q 365 892 364 904 q 365 871 365 879 l 365 750 q 424 683 365 683 l 740 683 q 788 697 775 683 q 806 725 800 710 q 820 753 813 740 q 856 767 828 767 q 897 733 897 767 q 895 683 897 708 q 893 633 893 658 q 895 582 893 608 q 897 529 897 556 q 857 496 897 496 q 824 519 836 504 q 798 547 811 533 q 764 571 785 561 q 706 581 743 581 l 403 581 q 365 540 365 581 l 365 229 q 371 144 365 178 q 408 110 376 110 l 682 110 q 826 133 765 110 q 929 184 888 156 q 997 235 971 213 q 1039 258 1024 258 q 1104 231 1107 258 q 1090 201 1104 217 q 1025 123 1057 163 q 965 42 993 83 q 935 4 950 22 q 883 -14 919 -14 l 94 -14 q 61 -8 78 -14 q 44 8 44 -1 l 44 29 q 51 55 44 46 q 67 69 58 64 q 87 81 76 75 q 106 94 97 86 q 127 131 119 108 q 138 181 135 154 q 142 235 142 207 q 143 289 143 264 m 400 1218 q 444 1202 425 1218 q 463 1163 463 1186 q 444 1124 463 1139 q 400 1108 425 1108 q 357 1124 375 1108 q 339 1163 339 1139 q 357 1202 339 1186 q 400 1218 375 1218 m 697 1215 q 741 1199 722 1215 q 760 1160 760 1183 q 741 1121 760 1136 q 697 1106 722 1106 q 654 1121 672 1106 q 636 1160 636 1136 q 654 1199 636 1183 q 697 1215 672 1215 z "},"Ï":{"ha":510,"x_min":44,"x_max":421,"o":"m 178 365 l 178 783 l 178 833 q 129 969 178 921 q 105 988 118 982 q 90 1024 92 994 q 117 1057 90 1057 l 372 1057 q 406 1041 400 1057 q 413 1008 413 1025 l 413 990 q 406 931 413 958 q 400 881 400 903 l 400 783 l 400 363 l 400 172 q 402 139 400 151 q 406 115 404 126 q 410 92 408 104 q 413 60 413 79 q 360 -7 413 4 l 122 -7 q 92 -3 106 -7 q 79 18 79 1 l 79 39 q 86 65 79 56 q 102 79 93 74 q 122 90 111 85 q 140 104 132 96 q 172 190 167 132 q 178 299 178 247 l 178 365 m 106 1217 q 149 1200 131 1217 q 168 1161 168 1183 q 149 1123 168 1139 q 106 1107 131 1107 q 63 1123 81 1107 q 44 1161 44 1139 q 63 1200 44 1183 q 106 1217 81 1217 m 403 1214 q 447 1197 428 1214 q 465 1158 465 1181 q 447 1120 465 1136 q 403 1104 428 1104 q 360 1120 378 1104 q 342 1158 342 1136 q 360 1197 342 1181 q 403 1214 378 1214 z "},"Ö":{"ha":1213,"x_min":44,"x_max":1124,"o":"m 606 1067 q 824 1023 722 1067 q 1003 904 926 979 q 1124 728 1079 829 q 1168 513 1168 628 q 1124 297 1168 397 q 1003 122 1079 197 q 824 3 926 47 q 606 -40 722 -40 q 360 3 465 -40 q 185 122 256 47 q 80 297 115 197 q 44 513 44 397 q 78 728 44 628 q 180 904 111 829 q 354 1023 249 979 q 606 1067 460 1067 m 982 433 q 940 660 982 563 q 832 824 897 758 q 687 924 767 890 q 532 958 607 958 q 446 944 496 958 q 350 893 396 931 q 272 788 304 856 q 240 611 240 719 q 276 426 240 515 q 376 269 311 338 q 533 159 442 200 q 735 118 624 118 q 809 131 767 118 q 890 179 851 144 q 955 276 928 214 q 982 433 982 338 m 464 1217 q 508 1200 489 1217 q 526 1161 526 1183 q 508 1123 526 1139 q 464 1107 489 1107 q 421 1123 439 1107 q 403 1161 403 1139 q 421 1200 403 1183 q 464 1217 439 1217 m 761 1214 q 805 1197 786 1214 q 824 1158 824 1181 q 805 1120 824 1136 q 761 1104 786 1104 q 718 1120 736 1104 q 700 1158 700 1136 q 718 1197 700 1181 q 761 1214 736 1214 z "},"Ü":{"ha":1153,"x_min":44,"x_max":1064,"o":"m 815 1050 l 1068 1050 q 1106 1018 1106 1050 q 1089 981 1106 997 q 1052 941 1072 964 q 1015 883 1032 918 q 999 792 999 849 l 999 386 l 997 386 l 997 219 q 1015 140 997 167 q 1053 99 1032 114 q 1091 72 1074 83 q 1108 39 1108 61 q 1101 17 1108 28 q 1083 -1 1093 7 q 1060 -13 1072 -8 q 1042 -18 1049 -18 l 865 -18 q 806 8 826 -18 q 786 60 786 33 q 775 75 786 75 q 754 67 768 75 q 617 1 696 31 q 435 -29 538 -29 q 307 -10 363 -29 q 206 44 251 8 q 163 119 178 74 q 142 218 149 165 q 135 326 136 271 q 133 429 133 381 q 132 621 133 522 q 131 824 131 719 q 117 925 131 897 q 88 963 104 953 q 58 980 71 974 q 44 1017 44 986 q 71 1050 44 1050 l 326 1050 q 360 1034 353 1050 q 367 1001 367 1018 l 367 983 q 360 925 367 953 q 353 875 353 897 l 353 304 q 415 143 353 201 q 462 117 433 125 q 522 108 490 108 q 622 131 564 108 q 733 181 681 153 q 779 256 772 200 q 786 429 786 311 l 786 746 q 783 808 786 769 q 778 888 781 847 q 772 965 775 929 q 769 1017 769 1000 q 783 1046 769 1042 q 815 1050 796 1050 m 411 1215 q 455 1199 436 1215 q 474 1160 474 1183 q 455 1121 474 1136 q 411 1106 436 1106 q 368 1121 386 1106 q 350 1160 350 1136 q 368 1199 350 1183 q 411 1215 386 1215 m 708 1213 q 752 1197 733 1213 q 771 1157 771 1181 q 752 1118 771 1133 q 708 1103 733 1103 q 665 1118 683 1103 q 647 1157 647 1133 q 665 1197 647 1181 q 708 1213 683 1213 z "},"ß":{"ha":847,"x_min":44,"x_max":758,"o":"m 301 783 l 301 169 q 303 135 301 149 q 308 108 306 121 q 312 82 310 96 q 314 49 314 68 q 260 -18 314 -7 l 83 -18 q 56 -15 67 -18 q 44 4 44 -12 l 44 25 q 51 51 44 42 q 67 65 58 60 q 87 76 76 71 q 106 90 97 82 q 130 160 126 113 q 133 251 133 208 l 133 660 q 156 841 133 765 q 217 965 178 917 q 310 1037 257 1014 q 424 1060 363 1060 q 551 1036 497 1060 q 638 973 604 1013 q 689 883 672 933 q 706 776 706 832 q 688 690 706 722 q 643 642 669 657 q 632 628 632 633 q 643 618 632 622 q 760 503 717 592 q 803 275 803 414 q 743 56 803 135 q 586 -24 683 -24 l 399 -24 q 372 -10 375 -24 q 369 14 369 3 q 388 57 369 46 q 435 68 407 68 q 485 64 460 68 q 540 83 510 64 q 596 135 569 101 q 640 216 622 168 q 658 322 658 264 q 644 410 658 371 q 609 475 631 449 q 562 515 588 501 q 513 529 536 529 l 389 529 q 365 536 368 526 q 363 558 361 546 q 396 633 363 613 q 469 667 429 654 q 543 697 510 679 q 576 760 576 714 q 540 921 576 869 q 432 972 503 972 q 391 961 414 972 q 348 928 368 950 q 315 869 328 906 q 301 783 301 833 z "},"ä":{"ha":729,"x_min":44,"x_max":640,"o":"m 582 372 l 582 333 q 580 277 582 300 q 575 235 578 254 q 570 199 572 217 q 568 158 568 181 q 589 88 568 101 q 642 75 610 75 q 674 67 664 75 q 685 50 685 60 q 652 3 685 18 q 561 -12 619 -12 q 485 1 511 -12 q 448 31 460 15 q 433 61 436 47 q 425 75 431 75 q 383 61 403 75 q 340 31 364 47 q 286 1 317 15 q 213 -12 256 -12 q 92 17 139 -12 q 44 129 44 46 q 61 197 44 167 q 106 250 78 226 q 172 292 135 274 q 249 326 208 310 q 307 349 276 338 q 363 374 338 360 q 406 408 389 389 q 422 456 422 428 q 388 547 422 524 q 296 569 354 569 q 226 546 244 569 q 199 494 207 522 q 181 443 190 467 q 136 419 171 419 q 82 447 96 419 q 68 510 68 475 q 89 571 68 544 q 147 615 110 597 q 232 640 183 632 q 335 649 281 649 q 449 638 401 649 q 525 597 496 628 q 568 513 554 567 q 582 372 582 458 m 422 196 l 422 258 q 418 286 422 269 q 396 303 414 303 q 358 292 386 303 q 299 260 329 281 q 247 208 269 239 q 224 136 224 176 q 240 106 224 115 q 279 97 256 97 q 326 105 301 97 q 373 126 351 113 q 408 157 394 139 q 422 196 422 175 m 181 814 q 224 797 206 814 q 243 758 243 781 q 224 720 243 736 q 181 704 206 704 q 138 720 156 704 q 119 758 119 736 q 138 797 119 781 q 181 814 156 814 m 478 811 q 522 794 503 811 q 540 756 540 778 q 522 717 540 733 q 478 701 503 701 q 435 717 453 701 q 417 756 417 733 q 435 794 417 778 q 478 811 453 811 z "},"ë":{"ha":736,"x_min":44,"x_max":647,"o":"m 303 542 q 215 500 244 542 q 186 399 186 458 q 194 366 186 375 q 214 357 203 357 q 238 367 224 357 l 388 481 q 401 497 399 489 q 374 528 404 514 q 303 542 344 542 m 619 539 q 606 513 619 526 q 573 487 593 500 q 529 460 553 474 q 483 432 506 446 q 362 357 421 393 q 254 282 303 321 q 235 247 235 267 q 249 218 235 232 q 337 151 286 181 q 463 122 388 122 q 543 134 511 122 q 596 160 575 146 q 631 185 617 174 q 660 197 644 197 q 684 193 676 197 q 692 160 692 189 q 665 109 692 139 q 597 52 639 79 q 503 6 556 25 q 400 -14 451 -14 q 252 12 318 -14 q 140 83 186 38 q 69 189 94 128 q 44 319 44 250 q 67 451 44 389 q 133 559 89 513 q 242 633 176 606 q 394 660 307 660 q 467 649 428 660 q 540 622 507 639 q 597 583 574 606 q 619 539 619 561 m 233 817 q 277 800 258 817 q 296 761 296 783 q 277 723 296 739 q 233 707 258 707 q 190 723 208 707 q 172 761 172 739 q 190 800 172 783 q 233 817 208 817 m 531 814 q 574 797 556 814 q 593 758 593 781 q 574 720 593 736 q 531 704 556 704 q 488 720 506 704 q 469 758 469 736 q 488 797 469 781 q 531 814 506 814 z "},"ï":{"ha":510,"x_min":44,"x_max":421,"o":"m 189 419 q 188 432 189 422 q 186 453 188 442 q 182 473 185 464 q 175 483 179 482 q 138 499 160 488 q 114 540 115 511 q 133 569 114 556 q 168 583 153 583 q 197 592 179 583 q 236 613 215 601 q 278 635 257 625 q 317 644 299 644 q 353 600 353 647 l 353 179 q 354 146 353 158 q 356 122 356 133 q 358 99 357 111 q 360 67 360 86 q 306 0 360 11 l 139 0 q 111 3 122 0 q 100 22 100 6 l 100 43 q 107 69 100 60 q 123 83 114 78 q 142 94 132 89 q 161 108 153 100 q 185 170 182 131 q 189 253 189 210 l 189 419 m 106 814 q 149 797 131 814 q 168 758 168 781 q 149 720 168 736 q 106 704 131 704 q 63 720 81 704 q 44 758 44 736 q 63 797 44 781 q 106 814 81 814 m 403 811 q 447 794 428 811 q 465 756 465 778 q 447 717 465 733 q 403 701 428 701 q 360 717 378 701 q 342 756 342 733 q 360 794 342 778 q 403 811 378 811 z "},"ö":{"ha":806,"x_min":44,"x_max":717,"o":"m 383 657 l 385 657 q 526 630 458 657 q 647 557 594 603 q 730 449 699 511 q 761 315 761 386 q 738 181 761 244 q 673 69 715 117 q 571 -6 631 22 q 438 -35 511 -35 q 268 -9 342 -35 q 144 61 194 17 q 69 167 94 106 q 44 299 44 228 q 69 434 44 369 q 140 549 94 499 q 247 628 185 599 q 383 657 310 657 m 331 558 q 231 512 268 558 q 193 382 193 465 q 222 242 193 300 q 294 148 251 185 q 387 94 338 111 q 478 76 436 76 q 576 122 539 76 q 613 267 613 168 q 592 368 613 317 q 535 462 572 419 q 447 531 499 504 q 331 558 394 558 m 250 860 q 294 844 275 860 q 313 804 313 828 q 294 765 313 781 q 250 750 275 750 q 207 765 225 750 q 189 804 189 781 q 207 844 189 828 q 250 860 225 860 m 547 857 q 591 841 572 857 q 610 801 610 825 q 591 763 610 778 q 547 747 572 747 q 504 763 522 747 q 486 801 486 778 q 504 841 486 825 q 547 857 522 857 z "},"ü":{"ha":840,"x_min":44,"x_max":751,"o":"m 275 631 l 275 196 q 283 121 275 143 q 339 99 292 99 q 410 106 375 99 q 474 129 446 114 q 520 169 503 144 q 538 225 538 193 l 538 611 q 563 644 538 644 l 732 644 q 773 638 750 644 q 794 594 796 632 q 779 576 794 582 q 746 561 764 569 q 713 539 728 553 q 697 496 697 525 l 697 168 q 710 126 697 139 q 740 107 724 114 q 770 92 757 100 q 783 67 783 85 q 763 35 783 47 q 713 11 743 22 q 668 -5 692 4 q 615 -14 644 -14 q 567 0 583 -14 q 542 31 551 14 q 528 61 533 47 q 511 75 522 75 q 487 61 503 75 q 444 31 471 47 q 379 0 417 14 q 289 -14 342 -14 q 191 -1 228 -14 q 135 39 154 13 q 111 105 117 65 q 106 196 106 144 l 106 413 q 104 469 106 444 q 93 503 103 493 q 64 523 82 515 q 44 560 46 531 q 56 589 44 575 q 82 603 67 603 q 113 612 93 603 q 154 633 132 621 q 199 654 176 644 q 240 664 222 664 q 265 660 256 665 q 275 631 275 654 m 276 814 q 320 797 301 814 q 339 758 339 781 q 320 720 339 736 q 276 704 301 704 q 233 720 251 704 q 215 758 215 736 q 233 797 215 781 q 276 814 251 814 m 574 811 q 617 794 599 811 q 636 756 636 778 q 617 717 636 733 q 574 701 599 701 q 531 717 549 701 q 513 756 513 733 q 531 794 513 778 q 574 811 549 811 z "}}}
